<svg width="191" height="191" viewBox="0 0 191 191" fill="none" xmlns="http://www.w3.org/2000/svg">
<rect width="191" height="191" rx="95.5" fill="#FF96AD"/>
<path d="M65.5352 63.7461C65.9336 63.7461 66.332 63.8398 66.7305 64.0273C67.1523 64.2148 67.668 64.4609 68.2773 64.7656C68.9102 65.0469 69.6836 65.3633 70.5977 65.7148C71.5117 66.0664 72.6602 66.3945 74.043 66.6992C74.8164 66.8633 75.6133 66.9922 76.4336 67.0859C77.2539 67.1797 78.0625 67.25 78.8594 67.2969C79.6562 67.3203 80.4297 67.3438 81.1797 67.3672C81.9297 67.3672 82.6211 67.3672 83.2539 67.3672C83.6055 67.3672 83.9453 67.3789 84.2734 67.4023C84.6016 67.4258 84.8945 67.4727 85.1523 67.543C85.4336 67.6133 85.6562 67.7188 85.8203 67.8594C85.9844 68 86.0664 68.1875 86.0664 68.4219C86.0664 68.6797 86.0078 68.8906 85.8906 69.0547C85.7734 69.1953 85.6211 69.3125 85.4336 69.4062C85.2695 69.4766 85.082 69.5234 84.8711 69.5469C84.6602 69.5703 84.4609 69.582 84.2734 69.582C83.7578 69.582 83.207 69.5586 82.6211 69.5117C82.0352 69.4648 81.4023 69.4414 80.7227 69.4414C78.5898 69.4414 76.7617 69.8047 75.2383 70.5312C73.7383 71.2344 72.4492 72.1484 71.3711 73.2734C71.0898 73.5547 70.668 74 70.1055 74.6094C69.5664 75.1953 68.9688 75.8516 68.3125 76.5781C67.6797 77.3047 67.0234 78.0781 66.3438 78.8984C65.6641 79.6953 65.043 80.4453 64.4805 81.1484C63.918 81.8516 63.4609 82.4727 63.1094 83.0117C62.7578 83.5273 62.582 83.8789 62.582 84.0664C62.582 84.418 62.7461 85.1094 63.0742 86.1406C63.4258 87.1484 63.9062 88.3789 64.5156 89.832C65.1484 91.2852 65.9219 92.8906 66.8359 94.6484C67.75 96.3828 68.7812 98.1289 69.9297 99.8867C71.0781 101.645 72.332 103.355 73.6914 105.02C75.0508 106.66 76.5039 108.125 78.0508 109.414C79.6211 110.68 81.2617 111.699 82.9727 112.473C84.6836 113.246 86.4531 113.633 88.2812 113.633C89.3359 113.633 90.2734 113.469 91.0938 113.141C91.9141 112.812 92.5938 112.367 93.1328 111.805C93.6719 111.219 94.082 110.527 94.3633 109.73C94.6445 108.934 94.7852 108.078 94.7852 107.164C94.7852 106.273 94.6445 105.395 94.3633 104.527C94.1055 103.637 93.707 102.793 93.168 101.996C92.7695 101.41 92.3945 100.941 92.043 100.59C91.7148 100.215 91.4219 99.9102 91.1641 99.6758C90.9062 99.418 90.6953 99.1953 90.5312 99.0078C90.3906 98.7969 90.3203 98.5625 90.3203 98.3047C90.3203 98.1172 90.3789 97.9297 90.4961 97.7422C90.6133 97.5547 90.8359 97.4609 91.1641 97.4609C91.75 97.4609 92.4297 97.7188 93.2031 98.2344C94 98.7266 94.7383 99.4414 95.418 100.379C96.0977 101.293 96.6719 102.418 97.1406 103.754C97.6328 105.066 97.8789 106.543 97.8789 108.184C97.8789 108.91 97.8086 109.707 97.668 110.574C97.5273 111.441 97.2695 112.309 96.8945 113.176C96.543 114.043 96.0508 114.875 95.418 115.672C94.8086 116.469 94.0352 117.184 93.0977 117.816C92.1602 118.426 91.0469 118.918 89.7578 119.293C88.4688 119.668 86.9688 119.855 85.2578 119.855C82.7969 119.855 80.4883 119.445 78.332 118.625C76.1758 117.781 74.1602 116.68 72.2852 115.32C70.4336 113.938 68.7227 112.367 67.1523 110.609C65.6055 108.852 64.1992 107.059 62.9336 105.23C59.9805 100.941 57.4609 96.0664 55.375 90.6055L51.5078 95.4219C51.5312 97.1797 51.543 99.0195 51.543 100.941C51.5664 102.84 51.5898 104.715 51.6133 106.566C51.6602 108.418 51.7188 110.199 51.7891 111.91C51.8828 113.621 52 115.18 52.1406 116.586C52.2812 118.039 52.5742 119.246 53.0195 120.207C53.4648 121.145 53.9688 121.906 54.5312 122.492C55.0938 123.102 55.6562 123.559 56.2188 123.863C56.7812 124.191 57.25 124.438 57.625 124.602C58.4219 124.953 59.043 125.234 59.4883 125.445C59.957 125.68 60.1914 125.926 60.1914 126.184C60.1914 126.301 60.1445 126.395 60.0508 126.465C59.957 126.559 59.7461 126.605 59.418 126.605C58.668 126.605 57.8125 126.453 56.8516 126.148C55.9141 125.844 54.8828 125.504 53.7578 125.129C52.6562 124.754 51.4844 124.414 50.2422 124.109C49.0234 123.805 47.7578 123.652 46.4453 123.652C45.5078 123.652 44.6875 123.688 43.9844 123.758C43.2812 123.828 42.5898 123.863 41.9102 123.863C41.2305 123.863 40.7383 123.793 40.4336 123.652C40.1289 123.535 39.9766 123.348 39.9766 123.09C39.9766 122.855 40.0938 122.68 40.3281 122.562C40.5625 122.445 40.8555 122.316 41.207 122.176C41.582 122.059 41.9805 121.906 42.4023 121.719C42.8477 121.508 43.2812 121.191 43.7031 120.77C44.2422 120.23 44.5586 119.516 44.6523 118.625C44.7461 117.711 44.793 116.727 44.793 115.672C44.793 114.852 44.7578 113.668 44.6875 112.121C44.6406 110.551 44.5586 108.77 44.4414 106.777C44.3477 104.785 44.2305 102.641 44.0898 100.344C43.9492 98.0234 43.7969 95.7031 43.6328 93.3828C43.4922 91.0625 43.3516 88.8008 43.2109 86.5977C43.0703 84.3945 42.9297 82.4023 42.7891 80.6211C42.6719 78.8164 42.5664 77.293 42.4727 76.0508C42.3789 74.8086 42.3203 73.9766 42.2969 73.5547C42.1328 72.0547 41.8984 70.8828 41.5938 70.0391C41.3125 69.1953 40.7969 68.5391 40.0469 68.0703C39.8359 67.9297 39.5664 67.8125 39.2383 67.7188C38.9102 67.625 38.5703 67.543 38.2188 67.4727C37.8672 67.4023 37.5039 67.3555 37.1289 67.332C36.7773 67.3086 36.4492 67.2969 36.1445 67.2969C36.0039 67.2969 35.8398 67.2852 35.6523 67.2617C35.4883 67.2383 35.3242 67.2031 35.1602 67.1562C35.0195 67.0859 34.8906 66.9922 34.7734 66.875C34.6797 66.7578 34.6328 66.6055 34.6328 66.418C34.6328 66.0898 34.75 65.8555 34.9844 65.7148C35.2188 65.5508 35.5117 65.4453 35.8633 65.3984C36.8477 65.3047 37.7617 65.2578 38.6055 65.2578C39.4492 65.2344 40.293 65.2109 41.1367 65.1875C42.0039 65.1641 42.8945 65.1289 43.8086 65.082C44.7227 65.0352 45.7305 64.9297 46.832 64.7656C48.543 64.5078 49.9609 64.2148 51.0859 63.8867C52.2109 63.5586 53.1367 63.2422 53.8633 62.9375C54.6133 62.6328 55.2109 62.3867 55.6562 62.1992C56.125 61.9883 56.5586 61.8828 56.957 61.8828C57.4492 61.8828 57.6953 62.0938 57.6953 62.5156C57.6953 62.7734 57.5664 62.9961 57.3086 63.1836C57.0508 63.3477 56.793 63.4883 56.5352 63.6055C56.1836 63.793 55.7852 63.9922 55.3398 64.2031C54.918 64.3906 54.4492 64.6484 53.9336 64.9766C52.9258 65.6328 52.2344 66.4648 51.8594 67.4727C51.5078 68.457 51.2852 69.7109 51.1914 71.2344C51.168 71.4453 51.1445 71.7031 51.1211 72.0078C51.1211 72.3125 51.1211 72.6289 51.1211 72.957C51.1211 73.2852 51.1211 73.6133 51.1211 73.9414C51.1211 74.2695 51.1211 74.5742 51.1211 74.8555C51.1211 77.1055 51.168 79.6016 51.2617 82.3438C51.3789 85.0625 51.4609 87.957 51.5078 91.0273V92.3281C51.9062 91.9062 52.4805 91.2734 53.2305 90.4297C53.9805 89.5859 54.8242 88.6367 55.7617 87.582C56.7227 86.5039 57.7305 85.3789 58.7852 84.207C59.8398 83.0352 60.8477 81.8984 61.8086 80.7969C62.7695 79.6719 63.6484 78.6406 64.4453 77.7031C65.2422 76.7422 65.875 75.957 66.3438 75.3477C67.1406 74.293 67.7148 73.3789 68.0664 72.6055C68.4414 71.8086 68.6289 71.0938 68.6289 70.4609C68.6289 69.9219 68.5234 69.4297 68.3125 68.9844C68.125 68.5391 67.9141 68.1875 67.6797 67.9297C67.375 67.5547 67.0469 67.2148 66.6953 66.9102C66.3672 66.582 66.0508 66.2773 65.7461 65.9961C65.4648 65.7148 65.2188 65.457 65.0078 65.2227C64.8203 64.9883 64.7266 64.7656 64.7266 64.5547C64.7266 64.3203 64.7852 64.1328 64.9023 63.9922C65.043 63.8281 65.2539 63.7461 65.5352 63.7461Z" fill="black"/>
<path d="M107.512 65.6094C108.895 65.6094 109.996 65.9727 110.816 66.6992C111.637 67.4258 112.047 68.457 112.047 69.793C112.047 70.6836 111.906 71.4336 111.625 72.043C111.344 72.6289 110.98 73.1094 110.535 73.4844C110.09 73.8359 109.598 74.0938 109.059 74.2578C108.543 74.3984 108.027 74.4688 107.512 74.4688C107.066 74.4688 106.598 74.3984 106.105 74.2578C105.613 74.1172 105.156 73.8828 104.734 73.5547C104.312 73.2031 103.961 72.7578 103.68 72.2188C103.422 71.6562 103.293 70.9648 103.293 70.1445C103.293 69.2773 103.434 68.5625 103.715 68C103.996 67.4141 104.348 66.9453 104.77 66.5938C105.191 66.2422 105.648 65.9961 106.141 65.8555C106.633 65.6914 107.09 65.6094 107.512 65.6094ZM112.504 77.1406C112.738 77.1406 112.855 77.4102 112.855 77.9492C112.855 78.3008 112.809 78.8867 112.715 79.707C112.645 80.5039 112.551 81.3594 112.434 82.2734C112.246 83.7266 112.059 85.3438 111.871 87.125C111.684 88.8828 111.496 90.6992 111.309 92.5742C111.145 94.4258 110.98 96.2656 110.816 98.0938C110.676 99.9219 110.547 101.621 110.43 103.191C110.312 104.738 110.219 106.109 110.148 107.305C110.078 108.477 110.043 109.344 110.043 109.906C110.043 110.633 110.09 111.23 110.184 111.699C110.277 112.168 110.395 112.555 110.535 112.859C110.676 113.164 110.828 113.41 110.992 113.598C111.18 113.785 111.367 113.949 111.555 114.09C111.766 114.23 112.023 114.359 112.328 114.477C112.633 114.594 112.961 114.711 113.312 114.828C113.664 114.922 114.016 115.004 114.367 115.074C114.742 115.145 115.082 115.191 115.387 115.215C115.879 115.309 116.277 115.379 116.582 115.426C116.887 115.473 117.039 115.625 117.039 115.883C117.039 116.352 116.535 116.586 115.527 116.586C114.824 116.586 114.121 116.539 113.418 116.445C112.715 116.328 111.988 116.199 111.238 116.059C110.512 115.918 109.75 115.801 108.953 115.707C108.156 115.59 107.301 115.531 106.387 115.531C105.543 115.531 104.781 115.555 104.102 115.602C103.422 115.648 102.801 115.707 102.238 115.777C101.676 115.848 101.148 115.906 100.656 115.953C100.164 116 99.6719 116.023 99.1797 116.023C98.7812 116.023 98.418 115.977 98.0898 115.883C97.7617 115.766 97.5977 115.543 97.5977 115.215C97.5977 114.887 97.7734 114.664 98.125 114.547C98.5 114.406 98.875 114.301 99.25 114.23C99.7188 114.137 100.176 114.031 100.621 113.914C101.066 113.797 101.465 113.621 101.816 113.387C102.191 113.129 102.496 112.801 102.73 112.402C102.988 111.98 103.152 111.441 103.223 110.785C103.316 109.496 103.387 108.184 103.434 106.848C103.48 105.512 103.516 104.199 103.539 102.91C103.562 101.598 103.574 100.332 103.574 99.1133C103.574 97.8711 103.574 96.7109 103.574 95.6328C103.574 94.3438 103.574 93.1719 103.574 92.1172C103.574 91.0391 103.551 90.125 103.504 89.375C103.457 88.1797 103.316 87.2422 103.082 86.5625C102.871 85.8828 102.555 85.3789 102.133 85.0508C101.734 84.7227 101.219 84.5117 100.586 84.418C99.9531 84.3008 99.1914 84.207 98.3008 84.1367C98.043 84.0898 97.832 84.0078 97.668 83.8906C97.5273 83.7734 97.457 83.5859 97.457 83.3281C97.457 82.8828 97.8086 82.625 98.5117 82.5547C98.8633 82.5312 99.3086 82.4961 99.8477 82.4492C100.387 82.3789 101.008 82.2852 101.711 82.168C102.438 82.0508 103.223 81.8867 104.066 81.6758C104.91 81.4414 105.801 81.125 106.738 80.7266C107.77 80.3047 108.613 79.8828 109.27 79.4609C109.949 79.0391 110.5 78.6641 110.922 78.3359C111.344 77.9844 111.672 77.7031 111.906 77.4922C112.141 77.2578 112.34 77.1406 112.504 77.1406Z" fill="#FFFF78"/>
<path d="M149.559 68.1406C151.012 68.1406 152.523 68.3164 154.094 68.668C155.688 68.9961 157.141 69.6289 158.453 70.5664C159.766 71.4805 160.844 72.7578 161.688 74.3984C162.531 76.0391 162.953 78.1484 162.953 80.7266C162.953 83.1172 162.672 85.2148 162.109 87.0195C161.57 88.8008 160.844 90.3477 159.93 91.6602C159.016 92.9492 157.961 94.0156 156.766 94.8594C155.594 95.7031 154.375 96.3828 153.109 96.8984C151.844 97.3906 150.578 97.7422 149.312 97.9531C148.047 98.1406 146.875 98.2344 145.797 98.2344C144.25 98.2344 142.926 98.1641 141.824 98.0234C140.723 97.8594 139.797 97.6719 139.047 97.4609C139.07 98.6562 139.082 99.8984 139.082 101.188C139.105 102.453 139.117 103.66 139.117 104.809C139.141 105.934 139.152 106.941 139.152 107.832C139.176 108.699 139.188 109.32 139.188 109.695C139.211 110.516 139.258 111.547 139.328 112.789C139.398 114.008 139.504 115.273 139.645 116.586C139.809 117.898 140.008 119.188 140.242 120.453C140.5 121.695 140.816 122.738 141.191 123.582C141.59 124.473 142.105 125.234 142.738 125.867C143.371 126.5 144.051 127.027 144.777 127.449C145.527 127.871 146.301 128.211 147.098 128.469C147.895 128.727 148.668 128.926 149.418 129.066C149.793 129.137 150.168 129.195 150.543 129.242C150.941 129.312 151.293 129.383 151.598 129.453C151.902 129.547 152.148 129.652 152.336 129.77C152.547 129.91 152.652 130.086 152.652 130.297C152.652 130.578 152.535 130.801 152.301 130.965C152.066 131.129 151.586 131.211 150.859 131.211C150.109 131.211 149.16 131.094 148.012 130.859C146.863 130.648 145.574 130.402 144.145 130.121C142.738 129.863 141.238 129.617 139.645 129.383C138.051 129.172 136.457 129.066 134.863 129.066C133.129 129.066 131.488 129.16 129.941 129.348C128.418 129.535 127.047 129.734 125.828 129.945C124.633 130.18 123.613 130.391 122.77 130.578C121.926 130.766 121.328 130.859 120.977 130.859C120.883 130.859 120.766 130.848 120.625 130.824C120.508 130.824 120.379 130.801 120.238 130.754C120.121 130.707 120.016 130.637 119.922 130.543C119.852 130.449 119.816 130.309 119.816 130.121C119.816 129.863 119.969 129.652 120.273 129.488C120.602 129.324 121.023 129.16 121.539 128.996C122.078 128.832 122.676 128.633 123.332 128.398C124.012 128.188 124.691 127.906 125.371 127.555C126.707 126.828 127.715 125.879 128.395 124.707C129.074 123.535 129.578 122.176 129.906 120.629C130.047 119.926 130.188 118.906 130.328 117.57C130.492 116.234 130.645 114.711 130.785 113C130.926 111.266 131.055 109.414 131.172 107.445C131.312 105.453 131.43 103.473 131.523 101.504C131.617 99.5117 131.688 97.6016 131.734 95.7734C131.805 93.9219 131.84 92.2695 131.84 90.8164C131.84 87.957 131.758 85.4375 131.594 83.2578C131.43 81.0781 131.078 79.3789 130.539 78.1602C130.117 77.1992 129.543 76.4375 128.816 75.875C128.113 75.2891 127.328 74.8438 126.461 74.5391C125.617 74.2344 124.727 74.0352 123.789 73.9414C122.852 73.8242 121.938 73.7422 121.047 73.6953C119.875 73.6719 119.09 73.5898 118.691 73.4492C118.293 73.2852 118.094 72.9805 118.094 72.5352C118.094 71.8555 118.691 71.5156 119.887 71.5156C120.402 71.5156 121.223 71.5508 122.348 71.6211C123.473 71.6914 124.82 71.7266 126.391 71.7266C127.539 71.7266 128.793 71.6914 130.152 71.6211C131.512 71.5508 132.918 71.4219 134.371 71.2344C135.59 71.0938 136.668 70.918 137.605 70.707C138.566 70.4727 139.445 70.25 140.242 70.0391C141.062 69.8047 141.824 69.582 142.527 69.3711C143.23 69.1367 143.945 68.9258 144.672 68.7383C145.398 68.5508 146.148 68.4102 146.922 68.3164C147.719 68.1992 148.598 68.1406 149.559 68.1406ZM139.469 78.8633C139.375 79.8477 139.305 80.9844 139.258 82.2734C139.211 83.5391 139.164 84.8984 139.117 86.3516C139.094 87.8047 139.07 89.3164 139.047 90.8867C139.047 92.457 139.047 94.0156 139.047 95.5625C139.797 95.7969 140.641 95.9727 141.578 96.0898C142.516 96.1836 143.641 96.2305 144.953 96.2305C146.711 96.2305 148.199 95.8086 149.418 94.9648C150.66 94.1211 151.656 93.0078 152.406 91.625C153.18 90.2188 153.73 88.6367 154.059 86.8789C154.41 85.0977 154.586 83.293 154.586 81.4648C154.586 79.9648 154.445 78.5117 154.164 77.1055C153.906 75.6992 153.473 74.4688 152.863 73.4141C152.254 72.3359 151.434 71.4805 150.402 70.8477C149.371 70.1914 148.105 69.8633 146.605 69.8633C145.434 69.8633 144.426 70.0742 143.582 70.4961C142.738 70.918 142.035 71.5273 141.473 72.3242C140.91 73.0977 140.465 74.0469 140.137 75.1719C139.832 76.2734 139.609 77.5039 139.469 78.8633Z" fill="#916BBF"/>
</svg>
