<svg width="430" height="73" viewBox="0 0 430 73" fill="none" xmlns="http://www.w3.org/2000/svg">
<path d="M28.0312 12.2188C28.3854 12.2188 28.7396 12.3021 29.0938 12.4688C29.4688 12.6354 29.9271 12.8542 30.4688 13.125C31.0312 13.375 31.7188 13.6562 32.5312 13.9688C33.3438 14.2812 34.3646 14.5729 35.5938 14.8438C36.2812 14.9896 36.9896 15.1042 37.7188 15.1875C38.4479 15.2708 39.1667 15.3333 39.875 15.375C40.5833 15.3958 41.2708 15.4167 41.9375 15.4375C42.6042 15.4375 43.2188 15.4375 43.7812 15.4375C44.0938 15.4375 44.3958 15.4479 44.6875 15.4688C44.9792 15.4896 45.2396 15.5312 45.4688 15.5938C45.7188 15.6562 45.9167 15.75 46.0625 15.875C46.2083 16 46.2812 16.1667 46.2812 16.375C46.2812 16.6042 46.2292 16.7917 46.125 16.9375C46.0208 17.0625 45.8854 17.1667 45.7188 17.25C45.5729 17.3125 45.4062 17.3542 45.2188 17.375C45.0312 17.3958 44.8542 17.4062 44.6875 17.4062C44.2292 17.4062 43.7396 17.3854 43.2188 17.3438C42.6979 17.3021 42.1354 17.2812 41.5312 17.2812C39.6354 17.2812 38.0104 17.6042 36.6562 18.25C35.3229 18.875 34.1771 19.6875 33.2188 20.6875C32.9688 20.9375 32.5938 21.3333 32.0938 21.875C31.6146 22.3958 31.0833 22.9792 30.5 23.625C29.9375 24.2708 29.3542 24.9583 28.75 25.6875C28.1458 26.3958 27.5938 27.0625 27.0938 27.6875C26.5938 28.3125 26.1875 28.8646 25.875 29.3438C25.5625 29.8021 25.4062 30.1146 25.4062 30.2812C25.4062 30.5938 25.5521 31.2083 25.8438 32.125C26.1562 33.0208 26.5833 34.1146 27.125 35.4062C27.6875 36.6979 28.375 38.125 29.1875 39.6875C30 41.2292 30.9167 42.7812 31.9375 44.3438C32.9583 45.9062 34.0729 47.4271 35.2812 48.9062C36.4896 50.3646 37.7812 51.6667 39.1562 52.8125C40.5521 53.9375 42.0104 54.8438 43.5312 55.5312C45.0521 56.2188 46.625 56.5625 48.25 56.5625C49.1875 56.5625 50.0208 56.4167 50.75 56.125C51.4792 55.8333 52.0833 55.4375 52.5625 54.9375C53.0417 54.4167 53.4062 53.8021 53.6562 53.0938C53.9062 52.3854 54.0312 51.625 54.0312 50.8125C54.0312 50.0208 53.9062 49.2396 53.6562 48.4688C53.4271 47.6771 53.0729 46.9271 52.5938 46.2188C52.2396 45.6979 51.9062 45.2812 51.5938 44.9688C51.3021 44.6354 51.0417 44.3646 50.8125 44.1562C50.5833 43.9271 50.3958 43.7292 50.25 43.5625C50.125 43.375 50.0625 43.1667 50.0625 42.9375C50.0625 42.7708 50.1146 42.6042 50.2188 42.4375C50.3229 42.2708 50.5208 42.1875 50.8125 42.1875C51.3333 42.1875 51.9375 42.4167 52.625 42.875C53.3333 43.3125 53.9896 43.9479 54.5938 44.7812C55.1979 45.5938 55.7083 46.5938 56.125 47.7812C56.5625 48.9479 56.7812 50.2604 56.7812 51.7188C56.7812 52.3646 56.7188 53.0729 56.5938 53.8438C56.4688 54.6146 56.2396 55.3854 55.9062 56.1562C55.5938 56.9271 55.1562 57.6667 54.5938 58.375C54.0521 59.0833 53.3646 59.7188 52.5312 60.2812C51.6979 60.8229 50.7083 61.2604 49.5625 61.5938C48.4167 61.9271 47.0833 62.0938 45.5625 62.0938C43.375 62.0938 41.3229 61.7292 39.4062 61C37.4896 60.25 35.6979 59.2708 34.0312 58.0625C32.3854 56.8333 30.8646 55.4375 29.4688 53.875C28.0938 52.3125 26.8438 50.7188 25.7188 49.0938C23.0938 45.2812 20.8542 40.9479 19 36.0938L15.5625 40.375C15.5833 41.9375 15.5938 43.5729 15.5938 45.2812C15.6146 46.9688 15.6354 48.6354 15.6562 50.2812C15.6979 51.9271 15.75 53.5104 15.8125 55.0312C15.8958 56.5521 16 57.9375 16.125 59.1875C16.25 60.4792 16.5104 61.5521 16.9062 62.4062C17.3021 63.2396 17.75 63.9167 18.25 64.4375C18.75 64.9792 19.25 65.3854 19.75 65.6562C20.25 65.9479 20.6667 66.1667 21 66.3125C21.7083 66.625 22.2604 66.875 22.6562 67.0625C23.0729 67.2708 23.2812 67.4896 23.2812 67.7188C23.2812 67.8229 23.2396 67.9062 23.1562 67.9688C23.0729 68.0521 22.8854 68.0938 22.5938 68.0938C21.9271 68.0938 21.1667 67.9583 20.3125 67.6875C19.4792 67.4167 18.5625 67.1146 17.5625 66.7812C16.5833 66.4479 15.5417 66.1458 14.4375 65.875C13.3542 65.6042 12.2292 65.4688 11.0625 65.4688C10.2292 65.4688 9.5 65.5 8.875 65.5625C8.25 65.625 7.63542 65.6562 7.03125 65.6562C6.42708 65.6562 5.98958 65.5938 5.71875 65.4688C5.44792 65.3646 5.3125 65.1979 5.3125 64.9688C5.3125 64.7604 5.41667 64.6042 5.625 64.5C5.83333 64.3958 6.09375 64.2812 6.40625 64.1562C6.73958 64.0521 7.09375 63.9167 7.46875 63.75C7.86458 63.5625 8.25 63.2812 8.625 62.9062C9.10417 62.4271 9.38542 61.7917 9.46875 61C9.55208 60.1875 9.59375 59.3125 9.59375 58.375C9.59375 57.6458 9.5625 56.5938 9.5 55.2188C9.45833 53.8229 9.38542 52.2396 9.28125 50.4688C9.19792 48.6979 9.09375 46.7917 8.96875 44.75C8.84375 42.6875 8.70833 40.625 8.5625 38.5625C8.4375 36.5 8.3125 34.4896 8.1875 32.5312C8.0625 30.5729 7.9375 28.8021 7.8125 27.2188C7.70833 25.6146 7.61458 24.2604 7.53125 23.1562C7.44792 22.0521 7.39583 21.3125 7.375 20.9375C7.22917 19.6042 7.02083 18.5625 6.75 17.8125C6.5 17.0625 6.04167 16.4792 5.375 16.0625C5.1875 15.9375 4.94792 15.8333 4.65625 15.75C4.36458 15.6667 4.0625 15.5938 3.75 15.5312C3.4375 15.4688 3.11458 15.4271 2.78125 15.4062C2.46875 15.3854 2.17708 15.375 1.90625 15.375C1.78125 15.375 1.63542 15.3646 1.46875 15.3438C1.32292 15.3229 1.17708 15.2917 1.03125 15.25C0.90625 15.1875 0.791667 15.1042 0.6875 15C0.604167 14.8958 0.5625 14.7604 0.5625 14.5938C0.5625 14.3021 0.666667 14.0938 0.875 13.9688C1.08333 13.8229 1.34375 13.7292 1.65625 13.6875C2.53125 13.6042 3.34375 13.5625 4.09375 13.5625C4.84375 13.5417 5.59375 13.5208 6.34375 13.5C7.11458 13.4792 7.90625 13.4479 8.71875 13.4062C9.53125 13.3646 10.4271 13.2708 11.4062 13.125C12.9271 12.8958 14.1875 12.6354 15.1875 12.3438C16.1875 12.0521 17.0104 11.7708 17.6562 11.5C18.3229 11.2292 18.8542 11.0104 19.25 10.8438C19.6667 10.6562 20.0521 10.5625 20.4062 10.5625C20.8438 10.5625 21.0625 10.75 21.0625 11.125C21.0625 11.3542 20.9479 11.5521 20.7188 11.7188C20.4896 11.8646 20.2604 11.9896 20.0312 12.0938C19.7188 12.2604 19.3646 12.4375 18.9688 12.625C18.5938 12.7917 18.1771 13.0208 17.7188 13.3125C16.8229 13.8958 16.2083 14.6354 15.875 15.5312C15.5625 16.4062 15.3646 17.5208 15.2812 18.875C15.2604 19.0625 15.2396 19.2917 15.2188 19.5625C15.2188 19.8333 15.2188 20.1146 15.2188 20.4062C15.2188 20.6979 15.2188 20.9896 15.2188 21.2812C15.2188 21.5729 15.2188 21.8438 15.2188 22.0938C15.2188 24.0938 15.2604 26.3125 15.3438 28.75C15.4479 31.1667 15.5208 33.7396 15.5625 36.4688V37.625C15.9167 37.25 16.4271 36.6875 17.0938 35.9375C17.7604 35.1875 18.5104 34.3438 19.3438 33.4062C20.1979 32.4479 21.0938 31.4479 22.0312 30.4062C22.9688 29.3646 23.8646 28.3542 24.7188 27.375C25.5729 26.375 26.3542 25.4583 27.0625 24.625C27.7708 23.7708 28.3333 23.0729 28.75 22.5312C29.4583 21.5938 29.9688 20.7812 30.2812 20.0938C30.6146 19.3854 30.7812 18.75 30.7812 18.1875C30.7812 17.7083 30.6875 17.2708 30.5 16.875C30.3333 16.4792 30.1458 16.1667 29.9375 15.9375C29.6667 15.6042 29.375 15.3021 29.0625 15.0312C28.7708 14.7396 28.4896 14.4688 28.2188 14.2188C27.9688 13.9688 27.75 13.7396 27.5625 13.5312C27.3958 13.3229 27.3125 13.125 27.3125 12.9375C27.3125 12.7292 27.3646 12.5625 27.4688 12.4375C27.5938 12.2917 27.7812 12.2188 28.0312 12.2188ZM85.5 23.75C85.6667 23.75 85.8333 24.0208 86 24.5625C86.1667 25.0833 86.3333 25.7708 86.5 26.625C86.6667 27.4792 86.8333 28.4688 87 29.5938C87.1667 30.6979 87.3333 31.8229 87.5 32.9688L88.625 40.8438C88.7292 40.1562 88.9062 39.3646 89.1562 38.4688C89.4271 37.5729 89.7812 36.6458 90.2188 35.6875C90.6562 34.7292 91.1875 33.7917 91.8125 32.875C92.4375 31.9583 93.1562 31.1354 93.9688 30.4062C94.8021 29.6771 95.7292 29.0938 96.75 28.6562C97.7917 28.1979 98.9479 27.9688 100.219 27.9688C101.781 27.9688 103.135 28.2708 104.281 28.875C105.427 29.4583 106.375 30.2812 107.125 31.3438C107.875 32.3854 108.427 33.6354 108.781 35.0938C109.135 36.5521 109.312 38.1458 109.312 39.875C109.312 41.4375 109.219 43.0104 109.031 44.5938C108.865 46.1562 108.677 47.6979 108.469 49.2188C108.281 50.7396 108.094 52.2083 107.906 53.625C107.74 55.0417 107.656 56.3646 107.656 57.5938C107.656 58.3229 107.719 58.9583 107.844 59.5C107.969 60.0417 108.156 60.5417 108.406 61C108.698 61.4375 109.052 61.8229 109.469 62.1562C109.906 62.4688 110.312 62.7708 110.688 63.0625C111.083 63.3333 111.417 63.6146 111.688 63.9062C111.979 64.1771 112.125 64.4688 112.125 64.7812C112.125 64.9688 112.073 65.125 111.969 65.25C111.865 65.3958 111.688 65.4688 111.438 65.4688C111.062 65.4688 110.646 65.3229 110.188 65.0312C109.75 64.7604 109.198 64.4167 108.531 64C107.885 63.5625 107.104 63.1042 106.188 62.625C105.271 62.125 104.156 61.6667 102.844 61.25C101.865 60.9167 100.875 60.6562 99.875 60.4688C98.8958 60.2812 97.75 60.1562 96.4375 60.0938C95.7083 60.0312 95.3438 59.8229 95.3438 59.4688C95.3438 59.0729 95.5833 58.875 96.0625 58.875C96.3542 58.875 96.7604 58.875 97.2812 58.875C97.8021 58.875 98.3333 58.8542 98.875 58.8125C99.7083 58.75 100.396 58.5 100.938 58.0625C101.479 57.6042 101.885 56.7708 102.156 55.5625C102.24 55.0833 102.323 54.4792 102.406 53.75C102.49 53 102.562 52.2083 102.625 51.375C102.688 50.5208 102.74 49.6562 102.781 48.7812C102.823 47.9062 102.844 47.0729 102.844 46.2812C102.844 45.5729 102.833 44.7604 102.812 43.8438C102.792 42.9062 102.719 41.9375 102.594 40.9375C102.49 39.9375 102.312 38.9583 102.062 38C101.833 37.0417 101.49 36.1875 101.031 35.4375C100.573 34.6875 99.9896 34.0833 99.2812 33.625C98.5729 33.1458 97.7083 32.9062 96.6875 32.9062C95.8125 32.9062 95.0104 33.125 94.2812 33.5625C93.5729 34 92.9375 34.6146 92.375 35.4062C91.8125 36.1771 91.3333 37.0938 90.9375 38.1562C90.5417 39.2188 90.2396 40.3854 90.0312 41.6562C89.8021 42.9479 89.6458 44.2812 89.5625 45.6562C89.5 47.0104 89.4688 48.3646 89.4688 49.7188C89.4688 50.8646 89.5104 51.9688 89.5938 53.0312C89.6771 54.0729 89.7917 55.0417 89.9375 55.9375C90.0833 56.8125 90.2604 57.5938 90.4688 58.2812C90.6771 58.9688 90.9167 59.5104 91.1875 59.9062C91.5833 60.4479 92.0104 60.8542 92.4688 61.125C92.9271 61.3958 93.3125 61.5833 93.625 61.6875C94.0417 61.8125 94.3333 61.9271 94.5 62.0312C94.6875 62.1146 94.7812 62.2396 94.7812 62.4062C94.7812 62.5312 94.6771 62.6458 94.4688 62.75C94.2812 62.8542 93.9583 62.9062 93.5 62.9062C93.0625 62.9062 92.5833 62.875 92.0625 62.8125C91.5417 62.7292 91 62.6458 90.4375 62.5625C89.875 62.4792 89.2917 62.4062 88.6875 62.3438C88.0833 62.2604 87.4896 62.2188 86.9062 62.2188C86.3229 62.2188 85.7292 62.2396 85.125 62.2812C84.5208 62.3229 83.9375 62.3646 83.375 62.4062C82.8333 62.4479 82.3333 62.4896 81.875 62.5312C81.4167 62.5729 81.0521 62.5938 80.7812 62.5938C79.9688 62.5938 79.5625 62.3333 79.5625 61.8125C79.5625 61.625 79.625 61.4688 79.75 61.3438C79.8958 61.1979 80.1458 61.1042 80.5 61.0625C80.7917 61.0417 81.0521 61.0208 81.2812 61C81.5104 60.9792 81.7396 60.9688 81.9688 60.9688C82.2188 60.9479 82.4688 60.9271 82.7188 60.9062C82.9896 60.8854 83.3021 60.8542 83.6562 60.8125C84.3229 60.7083 84.7708 60.4688 85 60.0938C85.25 59.6979 85.375 59.1667 85.375 58.5C85.375 57.3542 85.2708 55.9583 85.0625 54.3125C84.875 52.6667 84.6146 50.8542 84.2812 48.875C83.9479 46.8958 83.5417 44.8021 83.0625 42.5938C82.6042 40.3646 82.1146 38.0938 81.5938 35.7812C81.3438 34.5938 81.0521 33.7083 80.7188 33.125C80.4062 32.5417 79.9479 32.25 79.3438 32.25C79.0312 32.25 78.7083 32.3125 78.375 32.4375C78.0417 32.5417 77.7083 32.6667 77.375 32.8125C77.0625 32.9375 76.7604 33.0625 76.4688 33.1875C76.1771 33.2917 75.9062 33.3438 75.6562 33.3438C75.2604 33.3438 75.0625 33.1771 75.0625 32.8438C75.0625 32.5729 75.1667 32.3854 75.375 32.2812C75.6042 32.1562 75.8438 32.0417 76.0938 31.9375C76.6771 31.7083 77.3021 31.4167 77.9688 31.0625C78.6562 30.7083 79.3958 30.2292 80.1875 29.625C80.9583 29.0208 81.6458 28.375 82.25 27.6875C82.8542 27 83.375 26.3646 83.8125 25.7812C84.25 25.1979 84.6042 24.7188 84.875 24.3438C85.1458 23.9479 85.3542 23.75 85.5 23.75ZM140.781 0.5625C140.948 0.5625 141.052 0.71875 141.094 1.03125C141.156 1.32292 141.188 1.72917 141.188 2.25C141.188 3.875 141.167 5.63542 141.125 7.53125C141.104 9.40625 141.073 11.375 141.031 13.4375C140.99 15.4792 140.938 17.5833 140.875 19.75C140.833 21.8958 140.781 24.0417 140.719 26.1875C140.656 29.2083 140.594 32.1562 140.531 35.0312C140.469 37.9062 140.417 40.5521 140.375 42.9688C140.333 45.3646 140.292 47.4583 140.25 49.25C140.229 51.0417 140.219 52.375 140.219 53.25C140.219 54.25 140.302 55.0729 140.469 55.7188C140.635 56.3646 140.854 56.8958 141.125 57.3125C141.396 57.7083 141.708 58.0104 142.062 58.2188C142.438 58.4271 142.823 58.6042 143.219 58.75C143.74 58.9375 144.24 59.0729 144.719 59.1562C145.219 59.2188 145.656 59.2708 146.031 59.3125C146.406 59.3542 146.698 59.4167 146.906 59.5C147.135 59.5833 147.25 59.7396 147.25 59.9688C147.25 60.2812 147.021 60.4792 146.562 60.5625C146.125 60.6458 145.656 60.6875 145.156 60.6875C144.448 60.6875 143.469 60.6354 142.219 60.5312C140.969 60.4062 139.531 60.3438 137.906 60.3438C137.115 60.3438 136.323 60.3854 135.531 60.4688C134.74 60.5521 133.896 60.6458 133 60.75C132.125 60.8333 131.156 60.9167 130.094 61C129.052 61.0833 127.865 61.125 126.531 61.125C124.656 61.125 122.896 60.8958 121.25 60.4375C119.604 59.9792 118.167 59.2604 116.938 58.2812C115.708 57.2812 114.74 56 114.031 54.4375C113.323 52.8542 112.969 50.9479 112.969 48.7188C112.969 46.7396 113.323 44.9792 114.031 43.4375C114.76 41.875 115.74 40.5625 116.969 39.5C118.219 38.4375 119.667 37.625 121.312 37.0625C122.979 36.5 124.74 36.2188 126.594 36.2188C128.531 36.2188 130.146 36.375 131.438 36.6875C132.75 37 133.802 37.3125 134.594 37.625C134.594 35.625 134.573 33.5938 134.531 31.5312C134.49 29.4479 134.438 27.4271 134.375 25.4688C134.333 23.4896 134.281 21.625 134.219 19.875C134.177 18.125 134.125 16.5833 134.062 15.25C134.021 13.9167 133.979 12.8333 133.938 12C133.896 11.1667 133.875 10.6875 133.875 10.5625C133.854 10.25 133.823 9.94792 133.781 9.65625C133.76 9.34375 133.708 9.07292 133.625 8.84375C133.562 8.59375 133.458 8.40625 133.312 8.28125C133.167 8.13542 132.969 8.0625 132.719 8.0625C132.406 8.0625 132.052 8.13542 131.656 8.28125C131.26 8.40625 130.854 8.55208 130.438 8.71875C130.042 8.86458 129.646 9.01042 129.25 9.15625C128.854 9.28125 128.5 9.34375 128.188 9.34375C128 9.34375 127.823 9.3125 127.656 9.25C127.49 9.16667 127.406 9.01042 127.406 8.78125C127.406 8.51042 127.5 8.29167 127.688 8.125C127.896 7.95833 128.188 7.79167 128.562 7.625C128.833 7.5 129.146 7.38542 129.5 7.28125C129.854 7.15625 130.281 6.98958 130.781 6.78125C131.302 6.55208 131.917 6.27083 132.625 5.9375C133.333 5.58333 134.177 5.11458 135.156 4.53125C136.115 3.96875 136.917 3.44792 137.562 2.96875C138.229 2.48958 138.771 2.07292 139.188 1.71875C139.625 1.36458 139.958 1.08333 140.188 0.875C140.438 0.666667 140.635 0.5625 140.781 0.5625ZM134.844 52.2812C134.844 51.3646 134.833 50.375 134.812 49.3125C134.812 48.2292 134.802 47.1354 134.781 46.0312C134.781 44.9062 134.76 43.7917 134.719 42.6875C134.698 41.5833 134.677 40.5417 134.656 39.5625C134.01 39.2292 133.219 38.9583 132.281 38.75C131.344 38.5208 130.302 38.4062 129.156 38.4062C127.76 38.4062 126.531 38.6458 125.469 39.125C124.406 39.6042 123.51 40.2812 122.781 41.1562C122.052 42.0312 121.5 43.0833 121.125 44.3125C120.75 45.5417 120.562 46.9167 120.562 48.4375C120.562 50.0625 120.74 51.5417 121.094 52.875C121.448 54.1875 121.969 55.3125 122.656 56.25C123.365 57.1875 124.25 57.9167 125.312 58.4375C126.375 58.9375 127.615 59.1875 129.031 59.1875C130.24 59.1875 131.229 59 132 58.625C132.792 58.2292 133.396 57.7396 133.812 57.1562C134.229 56.5729 134.5 55.875 134.625 55.0625C134.771 54.25 134.844 53.3229 134.844 52.2812ZM171.344 47.4375C171.635 47.9167 171.896 48.5625 172.125 49.375C172.375 50.1875 172.5 51.0104 172.5 51.8438C172.5 53.3646 172.25 54.7292 171.75 55.9375C171.25 57.125 170.531 58.1354 169.594 58.9688C168.656 59.7812 167.521 60.4062 166.188 60.8438C164.875 61.2812 163.396 61.5 161.75 61.5C159.375 61.5 157.25 61.1042 155.375 60.3125C153.521 59.5 151.958 58.375 150.688 56.9375C149.417 55.5 148.448 53.7917 147.781 51.8125C147.115 49.8125 146.781 47.625 146.781 45.25C146.781 43.1042 147.01 41.1562 147.469 39.4062C147.927 37.6562 148.552 36.0938 149.344 34.7188C150.135 33.3438 151.052 32.1458 152.094 31.125C153.135 30.1042 154.24 29.2604 155.406 28.5938C156.573 27.9271 157.76 27.4375 158.969 27.125C160.177 26.7917 161.344 26.625 162.469 26.625C163.573 26.625 164.719 26.7708 165.906 27.0625C167.094 27.3542 168.177 27.8542 169.156 28.5625C170.156 29.2708 170.969 30.2083 171.594 31.375C172.24 32.5208 172.562 33.9688 172.562 35.7188C172.562 37.2396 172.333 38.5729 171.875 39.7188C171.438 40.8646 170.854 41.8542 170.125 42.6875C169.396 43.5208 168.562 44.2083 167.625 44.75C166.708 45.2917 165.76 45.7292 164.781 46.0625C163.823 46.375 162.875 46.5938 161.938 46.7188C161.021 46.8438 160.208 46.9062 159.5 46.9062C158.479 46.9062 157.479 46.8333 156.5 46.6875C155.542 46.5417 154.792 46.3854 154.25 46.2188C154.333 47.8438 154.583 49.4167 155 50.9375C155.438 52.4375 156.052 53.7604 156.844 54.9062C157.635 56.0521 158.615 56.9688 159.781 57.6562C160.969 58.3438 162.354 58.6875 163.938 58.6875C165.042 58.6875 165.99 58.5 166.781 58.125C167.594 57.75 168.26 57.25 168.781 56.625C169.302 55.9792 169.688 55.2396 169.938 54.4062C170.188 53.5729 170.312 52.6979 170.312 51.7812C170.312 51.2396 170.271 50.6771 170.188 50.0938C170.125 49.5104 170 48.9583 169.812 48.4375C169.688 48.125 169.583 47.8333 169.5 47.5625C169.417 47.2917 169.375 47.0729 169.375 46.9062C169.375 46.4896 169.562 46.2812 169.938 46.2812C170.125 46.2812 170.344 46.375 170.594 46.5625C170.865 46.75 171.115 47.0417 171.344 47.4375ZM154.125 44.1562C154.667 44.3229 155.281 44.4688 155.969 44.5938C156.656 44.6979 157.521 44.75 158.562 44.75C159.771 44.75 160.885 44.5208 161.906 44.0625C162.927 43.6042 163.802 42.9688 164.531 42.1562C165.26 41.3229 165.833 40.3229 166.25 39.1562C166.667 37.9896 166.875 36.6875 166.875 35.25C166.875 33.9792 166.729 32.9167 166.438 32.0625C166.167 31.1875 165.802 30.4896 165.344 29.9688C164.885 29.4479 164.354 29.0833 163.75 28.875C163.167 28.6458 162.562 28.5312 161.938 28.5312C161.146 28.5312 160.292 28.7708 159.375 29.25C158.458 29.7292 157.604 30.5625 156.812 31.75C156.042 32.9375 155.396 34.5417 154.875 36.5625C154.375 38.5625 154.125 41.0938 154.125 44.1562ZM185.469 24.125C185.469 24.375 185.458 24.7292 185.438 25.1875C185.417 25.625 185.406 26.0833 185.406 26.5625C185.406 27.1667 185.438 27.8125 185.5 28.5C185.583 29.1667 185.677 29.7917 185.781 30.375C185.906 30.9375 186.021 31.4167 186.125 31.8125C186.25 32.1875 186.354 32.375 186.438 32.375C186.521 32.375 186.635 32.0729 186.781 31.4688C186.948 30.8646 187.177 30.1042 187.469 29.1875C187.781 28.2708 188.177 27.2917 188.656 26.25C189.135 25.1875 189.75 24.1979 190.5 23.2812C191.25 22.3646 192.146 21.6042 193.188 21C194.25 20.3958 195.5 20.0938 196.938 20.0938C198.271 20.0938 199.385 20.3229 200.281 20.7812C201.198 21.2396 201.927 21.8125 202.469 22.5C203.01 23.1875 203.396 23.9375 203.625 24.75C203.854 25.5417 203.969 26.2917 203.969 27C203.969 28.1042 203.823 29.0729 203.531 29.9062C203.24 30.7188 202.844 31.3958 202.344 31.9375C201.865 32.4792 201.312 32.8958 200.688 33.1875C200.062 33.4583 199.427 33.5938 198.781 33.5938C197.594 33.5938 196.625 33.3125 195.875 32.75C195.125 32.1875 194.75 31.3646 194.75 30.2812C194.75 29.6979 194.823 29.1979 194.969 28.7812C195.135 28.3646 195.344 28.0104 195.594 27.7188C195.865 27.4271 196.177 27.1875 196.531 27C196.906 26.7917 197.312 26.625 197.75 26.5C198.646 26.2292 199.25 25.8958 199.562 25.5C199.896 25.1042 200.062 24.6458 200.062 24.125C200.062 23.8125 200 23.5104 199.875 23.2188C199.771 22.9271 199.583 22.6667 199.312 22.4375C199.062 22.1875 198.729 21.9896 198.312 21.8438C197.917 21.6979 197.427 21.625 196.844 21.625C195.656 21.625 194.615 21.9062 193.719 22.4688C192.823 23.0104 192.042 23.75 191.375 24.6875C190.708 25.6042 190.156 26.6667 189.719 27.875C189.281 29.0833 188.927 30.3542 188.656 31.6875C188.385 33 188.188 34.3333 188.062 35.6875C187.958 37.0208 187.906 38.2708 187.906 39.4375C187.906 40.5 187.948 41.6562 188.031 42.9062C188.115 44.1354 188.219 45.375 188.344 46.625C188.49 47.875 188.646 49.0938 188.812 50.2812C188.979 51.4688 189.135 52.5521 189.281 53.5312C189.448 54.5104 189.594 55.3542 189.719 56.0625C189.844 56.7708 189.938 57.2604 190 57.5312C190.229 58.4688 190.583 59.125 191.062 59.5C191.562 59.8542 192.219 60.0312 193.031 60.0312C193.385 60.0312 193.75 60.0208 194.125 60C194.521 59.9792 194.812 59.9688 195 59.9688C195.562 59.9688 195.844 60.1771 195.844 60.5938C195.844 60.9271 195.688 61.1458 195.375 61.25C195.125 61.3542 194.677 61.4167 194.031 61.4375C193.406 61.4583 192.667 61.4792 191.812 61.5C190.979 61.5208 190.073 61.5521 189.094 61.5938C188.115 61.6354 187.167 61.7083 186.25 61.8125C185.229 61.9375 184.24 62.1146 183.281 62.3438C182.323 62.5521 181.438 62.7604 180.625 62.9688C179.812 63.1562 179.094 63.3229 178.469 63.4688C177.844 63.6146 177.344 63.6875 176.969 63.6875C176.573 63.6875 176.302 63.6042 176.156 63.4375C176.01 63.2708 175.938 63.0938 175.938 62.9062C175.938 62.5938 176.062 62.375 176.312 62.25C176.583 62.1042 176.948 61.9583 177.406 61.8125C177.76 61.7083 178.177 61.6042 178.656 61.5C179.156 61.375 179.74 61.1667 180.406 60.875C181.073 60.5833 181.531 60.1979 181.781 59.7188C182.052 59.2188 182.188 58.4688 182.188 57.4688C182.188 57.1562 182.167 56.6354 182.125 55.9062C182.083 55.1562 182.021 54.2708 181.938 53.25C181.875 52.2292 181.792 51.1146 181.688 49.9062C181.604 48.6771 181.51 47.4271 181.406 46.1562C181.302 44.8646 181.188 43.5833 181.062 42.3125C180.958 41.0417 180.854 39.8542 180.75 38.75C180.646 37.625 180.542 36.625 180.438 35.75C180.354 34.875 180.281 34.1771 180.219 33.6562C180.135 33.0312 180.01 32.5417 179.844 32.1875C179.677 31.8125 179.479 31.5312 179.25 31.3438C179.021 31.1562 178.75 31.0417 178.438 31C178.146 30.9375 177.823 30.9062 177.469 30.9062H176.188C176.083 30.9062 175.948 30.9062 175.781 30.9062C175.635 30.8854 175.49 30.8542 175.344 30.8125C175.198 30.75 175.073 30.6667 174.969 30.5625C174.885 30.4583 174.844 30.3229 174.844 30.1562C174.844 29.9271 174.938 29.7604 175.125 29.6562C175.312 29.5521 175.542 29.4792 175.812 29.4375C176.854 29.3125 177.792 29.1354 178.625 28.9062C179.479 28.6771 180.312 28.2604 181.125 27.6562C181.625 27.2604 182.146 26.7396 182.688 26.0938C183.25 25.4271 183.708 24.7292 184.062 24C184.312 23.4792 184.583 23.2188 184.875 23.2188C185.146 23.2188 185.312 23.3229 185.375 23.5312C185.438 23.7396 185.469 23.9375 185.469 24.125Z" fill="black"/>
<path d="M65.3438 13.875C66.5729 13.875 67.5521 14.1979 68.2812 14.8438C69.0104 15.4896 69.375 16.4062 69.375 17.5938C69.375 18.3854 69.25 19.0521 69 19.5938C68.75 20.1146 68.4271 20.5417 68.0312 20.875C67.6354 21.1875 67.1979 21.4167 66.7188 21.5625C66.2604 21.6875 65.8021 21.75 65.3438 21.75C64.9479 21.75 64.5312 21.6875 64.0938 21.5625C63.6562 21.4375 63.25 21.2292 62.875 20.9375C62.5 20.625 62.1875 20.2292 61.9375 19.75C61.7083 19.25 61.5938 18.6354 61.5938 17.9062C61.5938 17.1354 61.7188 16.5 61.9688 16C62.2188 15.4792 62.5312 15.0625 62.9062 14.75C63.2812 14.4375 63.6875 14.2188 64.125 14.0938C64.5625 13.9479 64.9688 13.875 65.3438 13.875ZM69.7812 24.125C69.9896 24.125 70.0938 24.3646 70.0938 24.8438C70.0938 25.1562 70.0521 25.6771 69.9688 26.4062C69.9062 27.1146 69.8229 27.875 69.7188 28.6875C69.5521 29.9792 69.3854 31.4167 69.2188 33C69.0521 34.5625 68.8854 36.1771 68.7188 37.8438C68.5729 39.4896 68.4271 41.125 68.2812 42.75C68.1562 44.375 68.0417 45.8854 67.9375 47.2812C67.8333 48.6562 67.75 49.875 67.6875 50.9375C67.625 51.9792 67.5938 52.75 67.5938 53.25C67.5938 53.8958 67.6354 54.4271 67.7188 54.8438C67.8021 55.2604 67.9062 55.6042 68.0312 55.875C68.1562 56.1458 68.2917 56.3646 68.4375 56.5312C68.6042 56.6979 68.7708 56.8438 68.9375 56.9688C69.125 57.0938 69.3542 57.2083 69.625 57.3125C69.8958 57.4167 70.1875 57.5208 70.5 57.625C70.8125 57.7083 71.125 57.7812 71.4375 57.8438C71.7708 57.9062 72.0729 57.9479 72.3438 57.9688C72.7812 58.0521 73.1354 58.1146 73.4062 58.1562C73.6771 58.1979 73.8125 58.3333 73.8125 58.5625C73.8125 58.9792 73.3646 59.1875 72.4688 59.1875C71.8438 59.1875 71.2188 59.1458 70.5938 59.0625C69.9688 58.9583 69.3229 58.8438 68.6562 58.7188C68.0104 58.5938 67.3333 58.4896 66.625 58.4062C65.9167 58.3021 65.1562 58.25 64.3438 58.25C63.5938 58.25 62.9167 58.2708 62.3125 58.3125C61.7083 58.3542 61.1562 58.4062 60.6562 58.4688C60.1562 58.5312 59.6875 58.5833 59.25 58.625C58.8125 58.6667 58.375 58.6875 57.9375 58.6875C57.5833 58.6875 57.2604 58.6458 56.9688 58.5625C56.6771 58.4583 56.5312 58.2604 56.5312 57.9688C56.5312 57.6771 56.6875 57.4792 57 57.375C57.3333 57.25 57.6667 57.1562 58 57.0938C58.4167 57.0104 58.8229 56.9167 59.2188 56.8125C59.6146 56.7083 59.9688 56.5521 60.2812 56.3438C60.6146 56.1146 60.8854 55.8229 61.0938 55.4688C61.3229 55.0938 61.4688 54.6146 61.5312 54.0312C61.6146 52.8854 61.6771 51.7188 61.7188 50.5312C61.7604 49.3438 61.7917 48.1771 61.8125 47.0312C61.8333 45.8646 61.8438 44.7396 61.8438 43.6562C61.8438 42.5521 61.8438 41.5208 61.8438 40.5625C61.8438 39.4167 61.8438 38.375 61.8438 37.4375C61.8438 36.4792 61.8229 35.6667 61.7812 35C61.7396 33.9375 61.6146 33.1042 61.4062 32.5C61.2188 31.8958 60.9375 31.4479 60.5625 31.1562C60.2083 30.8646 59.75 30.6771 59.1875 30.5938C58.625 30.4896 57.9479 30.4062 57.1562 30.3438C56.9271 30.3021 56.7396 30.2292 56.5938 30.125C56.4688 30.0208 56.4062 29.8542 56.4062 29.625C56.4062 29.2292 56.7188 29 57.3438 28.9375C57.6562 28.9167 58.0521 28.8854 58.5312 28.8438C59.0104 28.7812 59.5625 28.6979 60.1875 28.5938C60.8333 28.4896 61.5312 28.3438 62.2812 28.1562C63.0312 27.9479 63.8229 27.6667 64.6562 27.3125C65.5729 26.9375 66.3229 26.5625 66.9062 26.1875C67.5104 25.8125 68 25.4792 68.375 25.1875C68.75 24.875 69.0417 24.625 69.25 24.4375C69.4583 24.2292 69.6354 24.125 69.7812 24.125ZM411.344 24.125C411.344 24.375 411.333 24.7292 411.312 25.1875C411.292 25.625 411.281 26.0833 411.281 26.5625C411.281 27.1667 411.312 27.8125 411.375 28.5C411.458 29.1667 411.552 29.7917 411.656 30.375C411.781 30.9375 411.896 31.4167 412 31.8125C412.125 32.1875 412.229 32.375 412.312 32.375C412.396 32.375 412.51 32.0729 412.656 31.4688C412.823 30.8646 413.052 30.1042 413.344 29.1875C413.656 28.2708 414.052 27.2917 414.531 26.25C415.01 25.1875 415.625 24.1979 416.375 23.2812C417.125 22.3646 418.021 21.6042 419.062 21C420.125 20.3958 421.375 20.0938 422.812 20.0938C424.146 20.0938 425.26 20.3229 426.156 20.7812C427.073 21.2396 427.802 21.8125 428.344 22.5C428.885 23.1875 429.271 23.9375 429.5 24.75C429.729 25.5417 429.844 26.2917 429.844 27C429.844 28.1042 429.698 29.0729 429.406 29.9062C429.115 30.7188 428.719 31.3958 428.219 31.9375C427.74 32.4792 427.188 32.8958 426.562 33.1875C425.938 33.4583 425.302 33.5938 424.656 33.5938C423.469 33.5938 422.5 33.3125 421.75 32.75C421 32.1875 420.625 31.3646 420.625 30.2812C420.625 29.6979 420.698 29.1979 420.844 28.7812C421.01 28.3646 421.219 28.0104 421.469 27.7188C421.74 27.4271 422.052 27.1875 422.406 27C422.781 26.7917 423.188 26.625 423.625 26.5C424.521 26.2292 425.125 25.8958 425.438 25.5C425.771 25.1042 425.938 24.6458 425.938 24.125C425.938 23.8125 425.875 23.5104 425.75 23.2188C425.646 22.9271 425.458 22.6667 425.188 22.4375C424.938 22.1875 424.604 21.9896 424.188 21.8438C423.792 21.6979 423.302 21.625 422.719 21.625C421.531 21.625 420.49 21.9062 419.594 22.4688C418.698 23.0104 417.917 23.75 417.25 24.6875C416.583 25.6042 416.031 26.6667 415.594 27.875C415.156 29.0833 414.802 30.3542 414.531 31.6875C414.26 33 414.062 34.3333 413.938 35.6875C413.833 37.0208 413.781 38.2708 413.781 39.4375C413.781 40.5 413.823 41.6562 413.906 42.9062C413.99 44.1354 414.094 45.375 414.219 46.625C414.365 47.875 414.521 49.0938 414.688 50.2812C414.854 51.4688 415.01 52.5521 415.156 53.5312C415.323 54.5104 415.469 55.3542 415.594 56.0625C415.719 56.7708 415.812 57.2604 415.875 57.5312C416.104 58.4688 416.458 59.125 416.938 59.5C417.438 59.8542 418.094 60.0312 418.906 60.0312C419.26 60.0312 419.625 60.0208 420 60C420.396 59.9792 420.688 59.9688 420.875 59.9688C421.438 59.9688 421.719 60.1771 421.719 60.5938C421.719 60.9271 421.562 61.1458 421.25 61.25C421 61.3542 420.552 61.4167 419.906 61.4375C419.281 61.4583 418.542 61.4792 417.688 61.5C416.854 61.5208 415.948 61.5521 414.969 61.5938C413.99 61.6354 413.042 61.7083 412.125 61.8125C411.104 61.9375 410.115 62.1146 409.156 62.3438C408.198 62.5521 407.312 62.7604 406.5 62.9688C405.688 63.1562 404.969 63.3229 404.344 63.4688C403.719 63.6146 403.219 63.6875 402.844 63.6875C402.448 63.6875 402.177 63.6042 402.031 63.4375C401.885 63.2708 401.812 63.0938 401.812 62.9062C401.812 62.5938 401.938 62.375 402.188 62.25C402.458 62.1042 402.823 61.9583 403.281 61.8125C403.635 61.7083 404.052 61.6042 404.531 61.5C405.031 61.375 405.615 61.1667 406.281 60.875C406.948 60.5833 407.406 60.1979 407.656 59.7188C407.927 59.2188 408.062 58.4688 408.062 57.4688C408.062 57.1562 408.042 56.6354 408 55.9062C407.958 55.1562 407.896 54.2708 407.812 53.25C407.75 52.2292 407.667 51.1146 407.562 49.9062C407.479 48.6771 407.385 47.4271 407.281 46.1562C407.177 44.8646 407.062 43.5833 406.938 42.3125C406.833 41.0417 406.729 39.8542 406.625 38.75C406.521 37.625 406.417 36.625 406.312 35.75C406.229 34.875 406.156 34.1771 406.094 33.6562C406.01 33.0312 405.885 32.5417 405.719 32.1875C405.552 31.8125 405.354 31.5312 405.125 31.3438C404.896 31.1562 404.625 31.0417 404.312 31C404.021 30.9375 403.698 30.9062 403.344 30.9062H402.062C401.958 30.9062 401.823 30.9062 401.656 30.9062C401.51 30.8854 401.365 30.8542 401.219 30.8125C401.073 30.75 400.948 30.6667 400.844 30.5625C400.76 30.4583 400.719 30.3229 400.719 30.1562C400.719 29.9271 400.812 29.7604 401 29.6562C401.188 29.5521 401.417 29.4792 401.688 29.4375C402.729 29.3125 403.667 29.1354 404.5 28.9062C405.354 28.6771 406.188 28.2604 407 27.6562C407.5 27.2604 408.021 26.7396 408.562 26.0938C409.125 25.4271 409.583 24.7292 409.938 24C410.188 23.4792 410.458 23.2188 410.75 23.2188C411.021 23.2188 411.188 23.3229 411.25 23.5312C411.312 23.7396 411.344 23.9375 411.344 24.125Z" fill="#FFFF78"/>
<path d="M228.031 16.125C229.323 16.125 230.667 16.2812 232.062 16.5938C233.479 16.8854 234.771 17.4479 235.938 18.2812C237.104 19.0938 238.062 20.2292 238.812 21.6875C239.562 23.1458 239.938 25.0208 239.938 27.3125C239.938 29.4375 239.688 31.3021 239.188 32.9062C238.708 34.4896 238.062 35.8646 237.25 37.0312C236.438 38.1771 235.5 39.125 234.438 39.875C233.396 40.625 232.312 41.2292 231.188 41.6875C230.062 42.125 228.938 42.4375 227.812 42.625C226.688 42.7917 225.646 42.875 224.688 42.875C223.312 42.875 222.135 42.8125 221.156 42.6875C220.177 42.5417 219.354 42.375 218.688 42.1875C218.708 43.25 218.719 44.3542 218.719 45.5C218.74 46.625 218.75 47.6979 218.75 48.7188C218.771 49.7188 218.781 50.6146 218.781 51.4062C218.802 52.1771 218.812 52.7292 218.812 53.0625C218.833 53.7917 218.875 54.7083 218.938 55.8125C219 56.8958 219.094 58.0208 219.219 59.1875C219.365 60.3542 219.542 61.5 219.75 62.625C219.979 63.7292 220.26 64.6562 220.594 65.4062C220.948 66.1979 221.406 66.875 221.969 67.4375C222.531 68 223.135 68.4688 223.781 68.8438C224.448 69.2188 225.135 69.5208 225.844 69.75C226.552 69.9792 227.24 70.1562 227.906 70.2812C228.24 70.3438 228.573 70.3958 228.906 70.4375C229.26 70.5 229.573 70.5625 229.844 70.625C230.115 70.7083 230.333 70.8021 230.5 70.9062C230.688 71.0312 230.781 71.1875 230.781 71.375C230.781 71.625 230.677 71.8229 230.469 71.9688C230.26 72.1146 229.833 72.1875 229.188 72.1875C228.521 72.1875 227.677 72.0833 226.656 71.875C225.635 71.6875 224.49 71.4688 223.219 71.2188C221.969 70.9896 220.635 70.7708 219.219 70.5625C217.802 70.375 216.385 70.2812 214.969 70.2812C213.427 70.2812 211.969 70.3646 210.594 70.5312C209.24 70.6979 208.021 70.875 206.938 71.0625C205.875 71.2708 204.969 71.4583 204.219 71.625C203.469 71.7917 202.938 71.875 202.625 71.875C202.542 71.875 202.438 71.8646 202.312 71.8438C202.208 71.8438 202.094 71.8229 201.969 71.7812C201.865 71.7396 201.771 71.6771 201.688 71.5938C201.625 71.5104 201.594 71.3854 201.594 71.2188C201.594 70.9896 201.729 70.8021 202 70.6562C202.292 70.5104 202.667 70.3646 203.125 70.2188C203.604 70.0729 204.135 69.8958 204.719 69.6875C205.323 69.5 205.927 69.25 206.531 68.9375C207.719 68.2917 208.615 67.4479 209.219 66.4062C209.823 65.3646 210.271 64.1562 210.562 62.7812C210.688 62.1562 210.812 61.25 210.938 60.0625C211.083 58.875 211.219 57.5208 211.344 56C211.469 54.4583 211.583 52.8125 211.688 51.0625C211.812 49.2917 211.917 47.5312 212 45.7812C212.083 44.0104 212.146 42.3125 212.188 40.6875C212.25 39.0417 212.281 37.5729 212.281 36.2812C212.281 33.7396 212.208 31.5 212.062 29.5625C211.917 27.625 211.604 26.1146 211.125 25.0312C210.75 24.1771 210.24 23.5 209.594 23C208.969 22.4792 208.271 22.0833 207.5 21.8125C206.75 21.5417 205.958 21.3646 205.125 21.2812C204.292 21.1771 203.479 21.1042 202.688 21.0625C201.646 21.0417 200.948 20.9688 200.594 20.8438C200.24 20.6979 200.062 20.4271 200.062 20.0312C200.062 19.4271 200.594 19.125 201.656 19.125C202.115 19.125 202.844 19.1562 203.844 19.2188C204.844 19.2812 206.042 19.3125 207.438 19.3125C208.458 19.3125 209.573 19.2812 210.781 19.2188C211.99 19.1562 213.24 19.0417 214.531 18.875C215.615 18.75 216.573 18.5938 217.406 18.4062C218.26 18.1979 219.042 18 219.75 17.8125C220.479 17.6042 221.156 17.4062 221.781 17.2188C222.406 17.0104 223.042 16.8229 223.688 16.6562C224.333 16.4896 225 16.3646 225.688 16.2812C226.396 16.1771 227.177 16.125 228.031 16.125ZM219.062 25.6562C218.979 26.5312 218.917 27.5417 218.875 28.6875C218.833 29.8125 218.792 31.0208 218.75 32.3125C218.729 33.6042 218.708 34.9479 218.688 36.3438C218.688 37.7396 218.688 39.125 218.688 40.5C219.354 40.7083 220.104 40.8646 220.938 40.9688C221.771 41.0521 222.771 41.0938 223.938 41.0938C225.5 41.0938 226.823 40.7188 227.906 39.9688C229.01 39.2188 229.896 38.2292 230.562 37C231.25 35.75 231.74 34.3438 232.031 32.7812C232.344 31.1979 232.5 29.5938 232.5 27.9688C232.5 26.6354 232.375 25.3438 232.125 24.0938C231.896 22.8438 231.51 21.75 230.969 20.8125C230.427 19.8542 229.698 19.0938 228.781 18.5312C227.865 17.9479 226.74 17.6562 225.406 17.6562C224.365 17.6562 223.469 17.8438 222.719 18.2188C221.969 18.5938 221.344 19.1354 220.844 19.8438C220.344 20.5312 219.948 21.375 219.656 22.375C219.385 23.3542 219.188 24.4479 219.062 25.6562ZM255.375 5.5625C255.375 5.79167 255.375 6.33333 255.375 7.1875C255.375 8.04167 255.375 9.0625 255.375 10.25C255.396 11.4375 255.406 12.7083 255.406 14.0625C255.427 15.4167 255.458 16.7188 255.5 17.9688C255.542 19.7188 255.615 21.7396 255.719 24.0312C255.823 26.3229 255.927 28.7083 256.031 31.1875C256.156 33.6458 256.281 36.125 256.406 38.625C256.552 41.125 256.688 43.4688 256.812 45.6562C256.958 47.8229 257.083 49.75 257.188 51.4375C257.292 53.125 257.375 54.4062 257.438 55.2812C257.521 56.5104 257.688 57.4792 257.938 58.1875C258.188 58.8958 258.531 59.4583 258.969 59.875C259.427 60.2917 259.99 60.6146 260.656 60.8438C261.344 61.0729 262.167 61.3125 263.125 61.5625C263.479 61.6667 263.708 61.7812 263.812 61.9062C263.917 62.0312 263.969 62.1771 263.969 62.3438C263.969 62.5312 263.896 62.6979 263.75 62.8438C263.604 62.9688 263.333 63.0312 262.938 63.0312C262.75 63.0312 262.365 63.0104 261.781 62.9688C261.219 62.9271 260.552 62.875 259.781 62.8125C259.01 62.75 258.167 62.6979 257.25 62.6562C256.354 62.6146 255.479 62.5938 254.625 62.5938C253.938 62.5938 253.208 62.625 252.438 62.6875C251.667 62.75 250.917 62.8125 250.188 62.875C249.458 62.9375 248.771 63 248.125 63.0625C247.5 63.125 246.979 63.1562 246.562 63.1562C246.271 63.1562 245.979 63.1042 245.688 63C245.417 62.8958 245.281 62.6562 245.281 62.2812C245.281 61.7188 245.688 61.4375 246.5 61.4375C247.042 61.4375 247.646 61.4062 248.312 61.3438C249 61.2812 249.562 61.1667 250 61C250.354 60.875 250.635 60.6979 250.844 60.4688C251.052 60.2396 251.208 59.9896 251.312 59.7188C251.438 59.4271 251.521 59.1354 251.562 58.8438C251.604 58.5312 251.625 58.2188 251.625 57.9062C251.625 57.5312 251.594 56.9375 251.531 56.125C251.49 55.2917 251.427 54.3229 251.344 53.2188C251.26 52.1146 251.156 50.8958 251.031 49.5625C250.927 48.2292 250.812 46.8646 250.688 45.4688C250.562 44.0521 250.438 42.6458 250.312 41.25C250.188 39.8542 250.062 38.5312 249.938 37.2812C249.812 36.0312 249.698 34.8958 249.594 33.875C249.51 32.8542 249.438 32.0208 249.375 31.375C249.271 30.4167 249.167 29.4271 249.062 28.4062C248.958 27.3646 248.854 26.3438 248.75 25.3438C248.646 24.3438 248.531 23.3854 248.406 22.4688C248.281 21.5521 248.156 20.7188 248.031 19.9688C247.906 19.2396 247.688 18.6771 247.375 18.2812C247.083 17.8646 246.635 17.6562 246.031 17.6562C245.552 17.6562 244.99 17.7708 244.344 18C243.719 18.2292 243.083 18.4792 242.438 18.75C241.792 19.0208 241.188 19.2708 240.625 19.5C240.042 19.7292 239.583 19.8438 239.25 19.8438C239.021 19.8438 238.823 19.7917 238.656 19.6875C238.469 19.5625 238.375 19.3542 238.375 19.0625C238.375 18.6667 238.583 18.3333 239 18.0625C239.188 17.9167 239.438 17.7708 239.75 17.625C240.062 17.4792 240.479 17.2812 241 17.0312C241.5 16.7604 242.125 16.4062 242.875 15.9688C243.625 15.5312 244.531 14.9479 245.594 14.2188C246.719 13.4479 247.74 12.6354 248.656 11.7812C249.573 10.9271 250.385 10.1042 251.094 9.3125C251.823 8.5 252.427 7.76042 252.906 7.09375C253.406 6.42708 253.781 5.89583 254.031 5.5C254.26 5.1875 254.438 4.9375 254.562 4.75C254.688 4.5625 254.833 4.46875 255 4.46875C255.167 4.46875 255.271 4.59375 255.312 4.84375C255.354 5.07292 255.375 5.3125 255.375 5.5625Z" fill="#916BBF"/>
<path d="M273.906 41.4688C273.135 41.4688 272.406 41.3229 271.719 41.0312C271.052 40.7396 270.469 40.3021 269.969 39.7188C269.469 39.1354 269.073 38.4062 268.781 37.5312C268.49 36.6562 268.344 35.625 268.344 34.4375C268.344 33.1458 268.521 31.8854 268.875 30.6562C269.25 29.4062 269.823 28.3021 270.594 27.3438C271.365 26.3646 272.344 25.5833 273.531 25C274.74 24.4167 276.188 24.125 277.875 24.125C279.271 24.125 280.5 24.3125 281.562 24.6875C282.646 25.0417 283.594 25.5312 284.406 26.1562C285.219 26.7604 285.906 27.4688 286.469 28.2812C287.052 29.0938 287.542 29.9479 287.938 30.8438C288.333 31.7188 288.656 32.6146 288.906 33.5312C289.177 34.4271 289.406 35.2812 289.594 36.0938C289.698 36.5521 289.823 37.2083 289.969 38.0625C290.135 38.8958 290.312 39.8646 290.5 40.9688C290.688 42.0729 290.885 43.2604 291.094 44.5312C291.302 45.7812 291.51 47.0521 291.719 48.3438C291.927 49.6354 292.125 50.8958 292.312 52.125C292.521 53.3333 292.708 54.4479 292.875 55.4688C293.042 56.4688 293.177 57.3333 293.281 58.0625C293.406 58.7708 293.5 59.2604 293.562 59.5312C293.688 60.1771 293.823 60.8333 293.969 61.5C294.135 62.1667 294.333 62.7812 294.562 63.3438C294.812 63.8854 295.115 64.3333 295.469 64.6875C295.823 65.0417 296.271 65.2188 296.812 65.2188C297.125 65.2188 297.396 65.1458 297.625 65C297.854 64.8542 298.031 64.6562 298.156 64.4062C298.302 64.1562 298.406 63.875 298.469 63.5625C298.531 63.25 298.562 62.9271 298.562 62.5938C298.562 62.1979 298.552 61.8021 298.531 61.4062C298.51 60.9896 298.5 60.6354 298.5 60.3438C298.5 60.0312 298.542 59.7604 298.625 59.5312C298.708 59.3021 298.875 59.1875 299.125 59.1875C299.354 59.1875 299.531 59.3229 299.656 59.5938C299.802 59.8438 299.906 60.1458 299.969 60.5C300.052 60.8333 300.104 61.1771 300.125 61.5312C300.146 61.8646 300.156 62.1146 300.156 62.2812C300.156 63.0104 300.094 63.8333 299.969 64.75C299.844 65.6667 299.583 66.5521 299.188 67.4062C298.812 68.2812 298.188 69 297.312 69.5625C296.438 70.125 295.427 70.4062 294.281 70.4062C293.281 70.4062 292.417 70.2604 291.688 69.9688C290.979 69.6771 290.365 69.3125 289.844 68.875C289.344 68.4375 288.917 67.9688 288.562 67.4688C288.229 66.9688 287.958 66.5 287.75 66.0625C287.167 64.9375 286.719 63.7083 286.406 62.375C286.115 61.0208 285.875 59.7292 285.688 58.5C285.375 59.0208 284.896 59.6667 284.25 60.4375C283.625 61.2083 282.844 61.9479 281.906 62.6562C280.969 63.3646 279.885 63.9688 278.656 64.4688C277.427 64.9688 276.062 65.2188 274.562 65.2188C272.896 65.2188 271.469 64.9792 270.281 64.5C269.115 64.0417 268.156 63.4167 267.406 62.625C266.656 61.8125 266.104 60.875 265.75 59.8125C265.396 58.7292 265.219 57.5833 265.219 56.375C265.219 55.0833 265.458 53.7812 265.938 52.4688C266.417 51.1562 267.198 49.9688 268.281 48.9062C269.385 47.8438 270.812 46.9792 272.562 46.3125C274.333 45.6458 276.49 45.3125 279.031 45.3125C279.615 45.3125 280.177 45.3438 280.719 45.4062C281.281 45.4479 281.781 45.5 282.219 45.5625C282.677 45.625 283.062 45.6875 283.375 45.75C283.708 45.8125 283.948 45.8542 284.094 45.875C283.969 44.0833 283.812 42.2917 283.625 40.5C283.542 39.75 283.448 38.9583 283.344 38.125C283.26 37.2917 283.167 36.4583 283.062 35.625C282.958 34.7708 282.844 33.9375 282.719 33.125C282.594 32.3125 282.458 31.5521 282.312 30.8438C281.979 29.2396 281.323 27.9688 280.344 27.0312C279.385 26.0729 278.156 25.5938 276.656 25.5938C275.844 25.5938 275.125 25.7396 274.5 26.0312C273.896 26.3229 273.375 26.6979 272.938 27.1562C272.521 27.6146 272.208 28.1354 272 28.7188C271.792 29.2812 271.688 29.8438 271.688 30.4062C271.688 31.0104 271.833 31.5208 272.125 31.9375C272.417 32.3333 272.771 32.6875 273.188 33C273.625 33.3125 274.094 33.6146 274.594 33.9062C275.094 34.1771 275.552 34.5 275.969 34.875C276.406 35.2292 276.771 35.6667 277.062 36.1875C277.354 36.6875 277.5 37.3229 277.5 38.0938C277.5 39.1146 277.146 39.9375 276.438 40.5625C275.75 41.1667 274.906 41.4688 273.906 41.4688ZM284.344 47.8125C284.198 47.75 283.938 47.6771 283.562 47.5938C283.208 47.4896 282.781 47.3958 282.281 47.3125C281.781 47.2083 281.24 47.125 280.656 47.0625C280.094 47 279.531 46.9688 278.969 46.9688C277.865 46.9688 276.833 47.125 275.875 47.4375C274.938 47.75 274.125 48.2188 273.438 48.8438C272.75 49.4479 272.208 50.2188 271.812 51.1562C271.417 52.0729 271.219 53.1354 271.219 54.3438C271.219 55.4479 271.396 56.3646 271.75 57.0938C272.125 57.8021 272.594 58.3646 273.156 58.7812C273.74 59.1979 274.375 59.4896 275.062 59.6562C275.771 59.8229 276.458 59.9062 277.125 59.9062C278.188 59.9062 279.198 59.7396 280.156 59.4062C281.115 59.0729 281.958 58.6875 282.688 58.25C283.417 57.8125 284.01 57.3854 284.469 56.9688C284.927 56.5521 285.208 56.2708 285.312 56.125C285.167 54.7292 285.031 53.4583 284.906 52.3125C284.844 51.8125 284.781 51.3229 284.719 50.8438C284.677 50.3646 284.625 49.9167 284.562 49.5C284.521 49.0833 284.479 48.7292 284.438 48.4375C284.396 48.1458 284.365 47.9375 284.344 47.8125ZM307.5 23.75C307.667 23.75 307.833 24.0208 308 24.5625C308.167 25.0833 308.333 25.7708 308.5 26.625C308.667 27.4792 308.833 28.4688 309 29.5938C309.167 30.6979 309.333 31.8229 309.5 32.9688L310.625 40.8438C310.729 40.1562 310.906 39.3646 311.156 38.4688C311.427 37.5729 311.781 36.6458 312.219 35.6875C312.656 34.7292 313.188 33.7917 313.812 32.875C314.438 31.9583 315.156 31.1354 315.969 30.4062C316.802 29.6771 317.729 29.0938 318.75 28.6562C319.792 28.1979 320.948 27.9688 322.219 27.9688C323.781 27.9688 325.135 28.2708 326.281 28.875C327.427 29.4583 328.375 30.2812 329.125 31.3438C329.875 32.3854 330.427 33.6354 330.781 35.0938C331.135 36.5521 331.312 38.1458 331.312 39.875C331.312 41.4375 331.219 43.0104 331.031 44.5938C330.865 46.1562 330.677 47.6979 330.469 49.2188C330.281 50.7396 330.094 52.2083 329.906 53.625C329.74 55.0417 329.656 56.3646 329.656 57.5938C329.656 58.3229 329.719 58.9583 329.844 59.5C329.969 60.0417 330.156 60.5417 330.406 61C330.698 61.4375 331.052 61.8229 331.469 62.1562C331.906 62.4688 332.312 62.7708 332.688 63.0625C333.083 63.3333 333.417 63.6146 333.688 63.9062C333.979 64.1771 334.125 64.4688 334.125 64.7812C334.125 64.9688 334.073 65.125 333.969 65.25C333.865 65.3958 333.688 65.4688 333.438 65.4688C333.062 65.4688 332.646 65.3229 332.188 65.0312C331.75 64.7604 331.198 64.4167 330.531 64C329.885 63.5625 329.104 63.1042 328.188 62.625C327.271 62.125 326.156 61.6667 324.844 61.25C323.865 60.9167 322.875 60.6562 321.875 60.4688C320.896 60.2812 319.75 60.1562 318.438 60.0938C317.708 60.0312 317.344 59.8229 317.344 59.4688C317.344 59.0729 317.583 58.875 318.062 58.875C318.354 58.875 318.76 58.875 319.281 58.875C319.802 58.875 320.333 58.8542 320.875 58.8125C321.708 58.75 322.396 58.5 322.938 58.0625C323.479 57.6042 323.885 56.7708 324.156 55.5625C324.24 55.0833 324.323 54.4792 324.406 53.75C324.49 53 324.562 52.2083 324.625 51.375C324.688 50.5208 324.74 49.6562 324.781 48.7812C324.823 47.9062 324.844 47.0729 324.844 46.2812C324.844 45.5729 324.833 44.7604 324.812 43.8438C324.792 42.9062 324.719 41.9375 324.594 40.9375C324.49 39.9375 324.312 38.9583 324.062 38C323.833 37.0417 323.49 36.1875 323.031 35.4375C322.573 34.6875 321.99 34.0833 321.281 33.625C320.573 33.1458 319.708 32.9062 318.688 32.9062C317.812 32.9062 317.01 33.125 316.281 33.5625C315.573 34 314.938 34.6146 314.375 35.4062C313.812 36.1771 313.333 37.0938 312.938 38.1562C312.542 39.2188 312.24 40.3854 312.031 41.6562C311.802 42.9479 311.646 44.2812 311.562 45.6562C311.5 47.0104 311.469 48.3646 311.469 49.7188C311.469 50.8646 311.51 51.9688 311.594 53.0312C311.677 54.0729 311.792 55.0417 311.938 55.9375C312.083 56.8125 312.26 57.5938 312.469 58.2812C312.677 58.9688 312.917 59.5104 313.188 59.9062C313.583 60.4479 314.01 60.8542 314.469 61.125C314.927 61.3958 315.312 61.5833 315.625 61.6875C316.042 61.8125 316.333 61.9271 316.5 62.0312C316.688 62.1146 316.781 62.2396 316.781 62.4062C316.781 62.5312 316.677 62.6458 316.469 62.75C316.281 62.8542 315.958 62.9062 315.5 62.9062C315.062 62.9062 314.583 62.875 314.062 62.8125C313.542 62.7292 313 62.6458 312.438 62.5625C311.875 62.4792 311.292 62.4062 310.688 62.3438C310.083 62.2604 309.49 62.2188 308.906 62.2188C308.323 62.2188 307.729 62.2396 307.125 62.2812C306.521 62.3229 305.938 62.3646 305.375 62.4062C304.833 62.4479 304.333 62.4896 303.875 62.5312C303.417 62.5729 303.052 62.5938 302.781 62.5938C301.969 62.5938 301.562 62.3333 301.562 61.8125C301.562 61.625 301.625 61.4688 301.75 61.3438C301.896 61.1979 302.146 61.1042 302.5 61.0625C302.792 61.0417 303.052 61.0208 303.281 61C303.51 60.9792 303.74 60.9688 303.969 60.9688C304.219 60.9479 304.469 60.9271 304.719 60.9062C304.99 60.8854 305.302 60.8542 305.656 60.8125C306.323 60.7083 306.771 60.4688 307 60.0938C307.25 59.6979 307.375 59.1667 307.375 58.5C307.375 57.3542 307.271 55.9583 307.062 54.3125C306.875 52.6667 306.615 50.8542 306.281 48.875C305.948 46.8958 305.542 44.8021 305.062 42.5938C304.604 40.3646 304.115 38.0938 303.594 35.7812C303.344 34.5938 303.052 33.7083 302.719 33.125C302.406 32.5417 301.948 32.25 301.344 32.25C301.031 32.25 300.708 32.3125 300.375 32.4375C300.042 32.5417 299.708 32.6667 299.375 32.8125C299.062 32.9375 298.76 33.0625 298.469 33.1875C298.177 33.2917 297.906 33.3438 297.656 33.3438C297.26 33.3438 297.062 33.1771 297.062 32.8438C297.062 32.5729 297.167 32.3854 297.375 32.2812C297.604 32.1562 297.844 32.0417 298.094 31.9375C298.677 31.7083 299.302 31.4167 299.969 31.0625C300.656 30.7083 301.396 30.2292 302.188 29.625C302.958 29.0208 303.646 28.375 304.25 27.6875C304.854 27 305.375 26.3646 305.812 25.7812C306.25 25.1979 306.604 24.7188 306.875 24.3438C307.146 23.9479 307.354 23.75 307.5 23.75Z" fill="#A2D2FF"/>
<path d="M344.938 23.75C345.104 23.75 345.271 24.0208 345.438 24.5625C345.604 25.0833 345.771 25.7708 345.938 26.625C346.104 27.4792 346.271 28.4688 346.438 29.5938C346.604 30.6979 346.771 31.8229 346.938 32.9688L348.062 40.8438C348.167 40.1562 348.344 39.3646 348.594 38.4688C348.865 37.5729 349.219 36.6458 349.656 35.6875C350.094 34.7292 350.625 33.7917 351.25 32.875C351.875 31.9583 352.594 31.1354 353.406 30.4062C354.24 29.6771 355.167 29.0938 356.188 28.6562C357.229 28.1979 358.385 27.9688 359.656 27.9688C361.219 27.9688 362.573 28.2708 363.719 28.875C364.865 29.4583 365.812 30.2812 366.562 31.3438C367.312 32.3854 367.865 33.6354 368.219 35.0938C368.573 36.5521 368.75 38.1458 368.75 39.875C368.75 41.4375 368.656 43.0104 368.469 44.5938C368.302 46.1562 368.115 47.6979 367.906 49.2188C367.719 50.7396 367.531 52.2083 367.344 53.625C367.177 55.0417 367.094 56.3646 367.094 57.5938C367.094 58.3229 367.156 58.9583 367.281 59.5C367.406 60.0417 367.594 60.5417 367.844 61C368.135 61.4375 368.49 61.8229 368.906 62.1562C369.344 62.4688 369.75 62.7708 370.125 63.0625C370.521 63.3333 370.854 63.6146 371.125 63.9062C371.417 64.1771 371.562 64.4688 371.562 64.7812C371.562 64.9688 371.51 65.125 371.406 65.25C371.302 65.3958 371.125 65.4688 370.875 65.4688C370.5 65.4688 370.083 65.3229 369.625 65.0312C369.188 64.7604 368.635 64.4167 367.969 64C367.323 63.5625 366.542 63.1042 365.625 62.625C364.708 62.125 363.594 61.6667 362.281 61.25C361.302 60.9167 360.312 60.6562 359.312 60.4688C358.333 60.2812 357.188 60.1562 355.875 60.0938C355.146 60.0312 354.781 59.8229 354.781 59.4688C354.781 59.0729 355.021 58.875 355.5 58.875C355.792 58.875 356.198 58.875 356.719 58.875C357.24 58.875 357.771 58.8542 358.312 58.8125C359.146 58.75 359.833 58.5 360.375 58.0625C360.917 57.6042 361.323 56.7708 361.594 55.5625C361.677 55.0833 361.76 54.4792 361.844 53.75C361.927 53 362 52.2083 362.062 51.375C362.125 50.5208 362.177 49.6562 362.219 48.7812C362.26 47.9062 362.281 47.0729 362.281 46.2812C362.281 45.5729 362.271 44.7604 362.25 43.8438C362.229 42.9062 362.156 41.9375 362.031 40.9375C361.927 39.9375 361.75 38.9583 361.5 38C361.271 37.0417 360.927 36.1875 360.469 35.4375C360.01 34.6875 359.427 34.0833 358.719 33.625C358.01 33.1458 357.146 32.9062 356.125 32.9062C355.25 32.9062 354.448 33.125 353.719 33.5625C353.01 34 352.375 34.6146 351.812 35.4062C351.25 36.1771 350.771 37.0938 350.375 38.1562C349.979 39.2188 349.677 40.3854 349.469 41.6562C349.24 42.9479 349.083 44.2812 349 45.6562C348.938 47.0104 348.906 48.3646 348.906 49.7188C348.906 50.8646 348.948 51.9688 349.031 53.0312C349.115 54.0729 349.229 55.0417 349.375 55.9375C349.521 56.8125 349.698 57.5938 349.906 58.2812C350.115 58.9688 350.354 59.5104 350.625 59.9062C351.021 60.4479 351.448 60.8542 351.906 61.125C352.365 61.3958 352.75 61.5833 353.062 61.6875C353.479 61.8125 353.771 61.9271 353.938 62.0312C354.125 62.1146 354.219 62.2396 354.219 62.4062C354.219 62.5312 354.115 62.6458 353.906 62.75C353.719 62.8542 353.396 62.9062 352.938 62.9062C352.5 62.9062 352.021 62.875 351.5 62.8125C350.979 62.7292 350.438 62.6458 349.875 62.5625C349.312 62.4792 348.729 62.4062 348.125 62.3438C347.521 62.2604 346.927 62.2188 346.344 62.2188C345.76 62.2188 345.167 62.2396 344.562 62.2812C343.958 62.3229 343.375 62.3646 342.812 62.4062C342.271 62.4479 341.771 62.4896 341.312 62.5312C340.854 62.5729 340.49 62.5938 340.219 62.5938C339.406 62.5938 339 62.3333 339 61.8125C339 61.625 339.062 61.4688 339.188 61.3438C339.333 61.1979 339.583 61.1042 339.938 61.0625C340.229 61.0417 340.49 61.0208 340.719 61C340.948 60.9792 341.177 60.9688 341.406 60.9688C341.656 60.9479 341.906 60.9271 342.156 60.9062C342.427 60.8854 342.74 60.8542 343.094 60.8125C343.76 60.7083 344.208 60.4688 344.438 60.0938C344.688 59.6979 344.812 59.1667 344.812 58.5C344.812 57.3542 344.708 55.9583 344.5 54.3125C344.312 52.6667 344.052 50.8542 343.719 48.875C343.385 46.8958 342.979 44.8021 342.5 42.5938C342.042 40.3646 341.552 38.0938 341.031 35.7812C340.781 34.5938 340.49 33.7083 340.156 33.125C339.844 32.5417 339.385 32.25 338.781 32.25C338.469 32.25 338.146 32.3125 337.812 32.4375C337.479 32.5417 337.146 32.6667 336.812 32.8125C336.5 32.9375 336.198 33.0625 335.906 33.1875C335.615 33.2917 335.344 33.3438 335.094 33.3438C334.698 33.3438 334.5 33.1771 334.5 32.8438C334.5 32.5729 334.604 32.3854 334.812 32.2812C335.042 32.1562 335.281 32.0417 335.531 31.9375C336.115 31.7083 336.74 31.4167 337.406 31.0625C338.094 30.7083 338.833 30.2292 339.625 29.625C340.396 29.0208 341.083 28.375 341.688 27.6875C342.292 27 342.812 26.3646 343.25 25.7812C343.688 25.1979 344.042 24.7188 344.312 24.3438C344.583 23.9479 344.792 23.75 344.938 23.75ZM397.219 47.4375C397.51 47.9167 397.771 48.5625 398 49.375C398.25 50.1875 398.375 51.0104 398.375 51.8438C398.375 53.3646 398.125 54.7292 397.625 55.9375C397.125 57.125 396.406 58.1354 395.469 58.9688C394.531 59.7812 393.396 60.4062 392.062 60.8438C390.75 61.2812 389.271 61.5 387.625 61.5C385.25 61.5 383.125 61.1042 381.25 60.3125C379.396 59.5 377.833 58.375 376.562 56.9375C375.292 55.5 374.323 53.7917 373.656 51.8125C372.99 49.8125 372.656 47.625 372.656 45.25C372.656 43.1042 372.885 41.1562 373.344 39.4062C373.802 37.6562 374.427 36.0938 375.219 34.7188C376.01 33.3438 376.927 32.1458 377.969 31.125C379.01 30.1042 380.115 29.2604 381.281 28.5938C382.448 27.9271 383.635 27.4375 384.844 27.125C386.052 26.7917 387.219 26.625 388.344 26.625C389.448 26.625 390.594 26.7708 391.781 27.0625C392.969 27.3542 394.052 27.8542 395.031 28.5625C396.031 29.2708 396.844 30.2083 397.469 31.375C398.115 32.5208 398.438 33.9688 398.438 35.7188C398.438 37.2396 398.208 38.5729 397.75 39.7188C397.312 40.8646 396.729 41.8542 396 42.6875C395.271 43.5208 394.438 44.2083 393.5 44.75C392.583 45.2917 391.635 45.7292 390.656 46.0625C389.698 46.375 388.75 46.5938 387.812 46.7188C386.896 46.8438 386.083 46.9062 385.375 46.9062C384.354 46.9062 383.354 46.8333 382.375 46.6875C381.417 46.5417 380.667 46.3854 380.125 46.2188C380.208 47.8438 380.458 49.4167 380.875 50.9375C381.312 52.4375 381.927 53.7604 382.719 54.9062C383.51 56.0521 384.49 56.9688 385.656 57.6562C386.844 58.3438 388.229 58.6875 389.812 58.6875C390.917 58.6875 391.865 58.5 392.656 58.125C393.469 57.75 394.135 57.25 394.656 56.625C395.177 55.9792 395.562 55.2396 395.812 54.4062C396.062 53.5729 396.188 52.6979 396.188 51.7812C396.188 51.2396 396.146 50.6771 396.062 50.0938C396 49.5104 395.875 48.9583 395.688 48.4375C395.562 48.125 395.458 47.8333 395.375 47.5625C395.292 47.2917 395.25 47.0729 395.25 46.9062C395.25 46.4896 395.438 46.2812 395.812 46.2812C396 46.2812 396.219 46.375 396.469 46.5625C396.74 46.75 396.99 47.0417 397.219 47.4375ZM380 44.1562C380.542 44.3229 381.156 44.4688 381.844 44.5938C382.531 44.6979 383.396 44.75 384.438 44.75C385.646 44.75 386.76 44.5208 387.781 44.0625C388.802 43.6042 389.677 42.9688 390.406 42.1562C391.135 41.3229 391.708 40.3229 392.125 39.1562C392.542 37.9896 392.75 36.6875 392.75 35.25C392.75 33.9792 392.604 32.9167 392.312 32.0625C392.042 31.1875 391.677 30.4896 391.219 29.9688C390.76 29.4479 390.229 29.0833 389.625 28.875C389.042 28.6458 388.438 28.5312 387.812 28.5312C387.021 28.5312 386.167 28.7708 385.25 29.25C384.333 29.7292 383.479 30.5625 382.688 31.75C381.917 32.9375 381.271 34.5417 380.75 36.5625C380.25 38.5625 380 41.0938 380 44.1562Z" fill="#BCFF78"/>
</svg>
