<svg width="242" height="41" viewBox="0 0 242 41" fill="none" xmlns="http://www.w3.org/2000/svg">
<path d="M15.7676 6.87305C15.9668 6.87305 16.166 6.91992 16.3652 7.01367C16.5762 7.10742 16.834 7.23047 17.1387 7.38281C17.4551 7.52344 17.8418 7.68164 18.2988 7.85742C18.7559 8.0332 19.3301 8.19727 20.0215 8.34961C20.4082 8.43164 20.8066 8.49609 21.2168 8.54297C21.627 8.58984 22.0312 8.625 22.4297 8.64844C22.8281 8.66016 23.2148 8.67187 23.5898 8.68359C23.9648 8.68359 24.3105 8.68359 24.627 8.68359C24.8027 8.68359 24.9727 8.68945 25.1367 8.70117C25.3008 8.71289 25.4473 8.73633 25.5762 8.77148C25.7168 8.80664 25.8281 8.85938 25.9102 8.92969C25.9922 9 26.0332 9.09375 26.0332 9.21094C26.0332 9.33984 26.0039 9.44531 25.9453 9.52734C25.8867 9.59766 25.8105 9.65625 25.7168 9.70312C25.6348 9.73828 25.541 9.76172 25.4355 9.77344C25.3301 9.78516 25.2305 9.79102 25.1367 9.79102C24.8789 9.79102 24.6035 9.7793 24.3105 9.75586C24.0176 9.73242 23.7012 9.7207 23.3613 9.7207C22.2949 9.7207 21.3809 9.90234 20.6191 10.2656C19.8691 10.6172 19.2246 11.0742 18.6855 11.6367C18.5449 11.7773 18.334 12 18.0527 12.3047C17.7832 12.5977 17.4844 12.9258 17.1562 13.2891C16.8398 13.6523 16.5117 14.0391 16.1719 14.4492C15.832 14.8477 15.5215 15.2227 15.2402 15.5742C14.959 15.9258 14.7305 16.2363 14.5547 16.5059C14.3789 16.7637 14.291 16.9395 14.291 17.0332C14.291 17.209 14.373 17.5547 14.5371 18.0703C14.7129 18.5742 14.9531 19.1895 15.2578 19.916C15.5742 20.6426 15.9609 21.4453 16.418 22.3242C16.875 23.1914 17.3906 24.0645 17.9648 24.9434C18.5391 25.8223 19.166 26.6777 19.8457 27.5098C20.5254 28.3301 21.252 29.0625 22.0254 29.707C22.8105 30.3398 23.6309 30.8496 24.4863 31.2363C25.3418 31.623 26.2266 31.8164 27.1406 31.8164C27.668 31.8164 28.1367 31.7344 28.5469 31.5703C28.957 31.4062 29.2969 31.1836 29.5664 30.9023C29.8359 30.6094 30.041 30.2637 30.1816 29.8652C30.3223 29.4668 30.3926 29.0391 30.3926 28.582C30.3926 28.1367 30.3223 27.6973 30.1816 27.2637C30.0527 26.8184 29.8535 26.3965 29.584 25.998C29.3848 25.7051 29.1973 25.4707 29.0215 25.2949C28.8574 25.1074 28.7109 24.9551 28.582 24.8379C28.4531 24.709 28.3477 24.5977 28.2656 24.5039C28.1953 24.3984 28.1602 24.2812 28.1602 24.1523C28.1602 24.0586 28.1895 23.9648 28.248 23.8711C28.3066 23.7773 28.418 23.7305 28.582 23.7305C28.875 23.7305 29.2148 23.8594 29.6016 24.1172C30 24.3633 30.3691 24.7207 30.709 25.1895C31.0488 25.6465 31.3359 26.209 31.5703 26.877C31.8164 27.5332 31.9395 28.2715 31.9395 29.0918C31.9395 29.4551 31.9043 29.8535 31.834 30.2871C31.7637 30.7207 31.6348 31.1543 31.4473 31.5879C31.2715 32.0215 31.0254 32.4375 30.709 32.8359C30.4043 33.2344 30.0176 33.5918 29.5488 33.9082C29.0801 34.2129 28.5234 34.459 27.8789 34.6465C27.2344 34.834 26.4844 34.9277 25.6289 34.9277C24.3984 34.9277 23.2441 34.7227 22.166 34.3125C21.0879 33.8906 20.0801 33.3398 19.1426 32.6602C18.2168 31.9688 17.3613 31.1836 16.5762 30.3047C15.8027 29.4258 15.0996 28.5293 14.4668 27.6152C12.9902 25.4707 11.7305 23.0332 10.6875 20.3027L8.75391 22.7109C8.76562 23.5898 8.77148 24.5098 8.77148 25.4707C8.7832 26.4199 8.79492 27.3574 8.80664 28.2832C8.83008 29.209 8.85938 30.0996 8.89453 30.9551C8.94141 31.8105 9 32.5898 9.07031 33.293C9.14062 34.0195 9.28711 34.623 9.50977 35.1035C9.73242 35.5723 9.98438 35.9531 10.2656 36.2461C10.5469 36.5508 10.8281 36.7793 11.1094 36.9316C11.3906 37.0957 11.625 37.2188 11.8125 37.3008C12.2109 37.4766 12.5215 37.6172 12.7441 37.7227C12.9785 37.8398 13.0957 37.9629 13.0957 38.0918C13.0957 38.1504 13.0723 38.1973 13.0254 38.2324C12.9785 38.2793 12.873 38.3027 12.709 38.3027C12.334 38.3027 11.9062 38.2266 11.4258 38.0742C10.957 37.9219 10.4414 37.752 9.87891 37.5645C9.32812 37.377 8.74219 37.207 8.12109 37.0547C7.51172 36.9023 6.87891 36.8262 6.22266 36.8262C5.75391 36.8262 5.34375 36.8438 4.99219 36.8789C4.64062 36.9141 4.29492 36.9316 3.95508 36.9316C3.61523 36.9316 3.36914 36.8965 3.2168 36.8262C3.06445 36.7676 2.98828 36.6738 2.98828 36.5449C2.98828 36.4277 3.04688 36.3398 3.16406 36.2812C3.28125 36.2227 3.42773 36.1582 3.60352 36.0879C3.79102 36.0293 3.99023 35.9531 4.20117 35.8594C4.42383 35.7539 4.64062 35.5957 4.85156 35.3848C5.12109 35.1152 5.2793 34.7578 5.32617 34.3125C5.37305 33.8555 5.39648 33.3633 5.39648 32.8359C5.39648 32.4258 5.37891 31.834 5.34375 31.0605C5.32031 30.2754 5.2793 29.3848 5.2207 28.3887C5.17383 27.3926 5.11523 26.3203 5.04492 25.1719C4.97461 24.0117 4.89844 22.8516 4.81641 21.6914C4.74609 20.5312 4.67578 19.4004 4.60547 18.2988C4.53516 17.1973 4.46484 16.2012 4.39453 15.3105C4.33594 14.4082 4.2832 13.6465 4.23633 13.0254C4.18945 12.4043 4.16016 11.9883 4.14844 11.7773C4.06641 11.0273 3.94922 10.4414 3.79688 10.0195C3.65625 9.59766 3.39844 9.26953 3.02344 9.03516C2.91797 8.96484 2.7832 8.90625 2.61914 8.85938C2.45508 8.8125 2.28516 8.77148 2.10938 8.73633C1.93359 8.70117 1.75195 8.67773 1.56445 8.66602C1.38867 8.6543 1.22461 8.64844 1.07227 8.64844C1.00195 8.64844 0.919922 8.64258 0.826172 8.63086C0.744141 8.61914 0.662109 8.60156 0.580078 8.57812C0.509766 8.54297 0.445312 8.49609 0.386719 8.4375C0.339844 8.37891 0.316406 8.30273 0.316406 8.20898C0.316406 8.04492 0.375 7.92773 0.492188 7.85742C0.609375 7.77539 0.755859 7.72266 0.931641 7.69922C1.42383 7.65234 1.88086 7.62891 2.30273 7.62891C2.72461 7.61719 3.14648 7.60547 3.56836 7.59375C4.00195 7.58203 4.44727 7.56445 4.9043 7.54102C5.36133 7.51758 5.86523 7.46484 6.41602 7.38281C7.27148 7.25391 7.98047 7.10742 8.54297 6.94336C9.10547 6.7793 9.56836 6.62109 9.93164 6.46875C10.3066 6.31641 10.6055 6.19336 10.8281 6.09961C11.0625 5.99414 11.2793 5.94141 11.4785 5.94141C11.7246 5.94141 11.8477 6.04688 11.8477 6.25781C11.8477 6.38672 11.7832 6.49805 11.6543 6.5918C11.5254 6.67383 11.3965 6.74414 11.2676 6.80273C11.0918 6.89648 10.8926 6.99609 10.6699 7.10156C10.459 7.19531 10.2246 7.32422 9.9668 7.48828C9.46289 7.81641 9.11719 8.23242 8.92969 8.73633C8.75391 9.22852 8.64258 9.85547 8.5957 10.6172C8.58398 10.7227 8.57227 10.8516 8.56055 11.0039C8.56055 11.1562 8.56055 11.3145 8.56055 11.4785C8.56055 11.6426 8.56055 11.8066 8.56055 11.9707C8.56055 12.1348 8.56055 12.2871 8.56055 12.4277C8.56055 13.5527 8.58398 14.8008 8.63086 16.1719C8.68945 17.5312 8.73047 18.9785 8.75391 20.5137V21.1641C8.95312 20.9531 9.24023 20.6367 9.61523 20.2148C9.99023 19.793 10.4121 19.3184 10.8809 18.791C11.3613 18.252 11.8652 17.6895 12.3926 17.1035C12.9199 16.5176 13.4238 15.9492 13.9043 15.3984C14.3848 14.8359 14.8242 14.3203 15.2227 13.8516C15.6211 13.3711 15.9375 12.9785 16.1719 12.6738C16.5703 12.1465 16.8574 11.6895 17.0332 11.3027C17.2207 10.9043 17.3145 10.5469 17.3145 10.2305C17.3145 9.96094 17.2617 9.71484 17.1562 9.49219C17.0625 9.26953 16.957 9.09375 16.8398 8.96484C16.6875 8.77734 16.5234 8.60742 16.3477 8.45508C16.1836 8.29102 16.0254 8.13867 15.873 7.99805C15.7324 7.85742 15.6094 7.72852 15.5039 7.61133C15.4102 7.49414 15.3633 7.38281 15.3633 7.27734C15.3633 7.16016 15.3926 7.06641 15.4512 6.99609C15.5215 6.91406 15.627 6.87305 15.7676 6.87305ZM48.0938 13.3594C48.1875 13.3594 48.2812 13.5117 48.375 13.8164C48.4688 14.1094 48.5625 14.4961 48.6562 14.9766C48.75 15.457 48.8438 16.0137 48.9375 16.6465C49.0312 17.2676 49.125 17.9004 49.2188 18.5449L49.8516 22.9746C49.9102 22.5879 50.0098 22.1426 50.1504 21.6387C50.3027 21.1348 50.502 20.6133 50.748 20.0742C50.9941 19.5352 51.293 19.0078 51.6445 18.4922C51.9961 17.9766 52.4004 17.5137 52.8574 17.1035C53.3262 16.6934 53.8477 16.3652 54.4219 16.1191C55.0078 15.8613 55.6582 15.7324 56.373 15.7324C57.252 15.7324 58.0137 15.9023 58.6582 16.2422C59.3027 16.5703 59.8359 17.0332 60.2578 17.6309C60.6797 18.2168 60.9902 18.9199 61.1895 19.7402C61.3887 20.5605 61.4883 21.457 61.4883 22.4297C61.4883 23.3086 61.4355 24.1934 61.3301 25.084C61.2363 25.9629 61.1309 26.8301 61.0137 27.6855C60.9082 28.541 60.8027 29.3672 60.6973 30.1641C60.6035 30.9609 60.5566 31.7051 60.5566 32.3965C60.5566 32.8066 60.5918 33.1641 60.6621 33.4688C60.7324 33.7734 60.8379 34.0547 60.9785 34.3125C61.1426 34.5586 61.3418 34.7754 61.5762 34.9629C61.8223 35.1387 62.0508 35.3086 62.2617 35.4727C62.4844 35.625 62.6719 35.7832 62.8242 35.9473C62.9883 36.0996 63.0703 36.2637 63.0703 36.4395C63.0703 36.5449 63.041 36.6328 62.9824 36.7031C62.9238 36.7852 62.8242 36.8262 62.6836 36.8262C62.4727 36.8262 62.2383 36.7441 61.9805 36.5801C61.7344 36.4277 61.4238 36.2344 61.0488 36C60.6855 35.7539 60.2461 35.4961 59.7305 35.2266C59.2148 34.9453 58.5879 34.6875 57.8496 34.4531C57.2988 34.2656 56.7422 34.1191 56.1797 34.0137C55.6289 33.9082 54.9844 33.8379 54.2461 33.8027C53.8359 33.7676 53.6309 33.6504 53.6309 33.4512C53.6309 33.2285 53.7656 33.1172 54.0352 33.1172C54.1992 33.1172 54.4277 33.1172 54.7207 33.1172C55.0137 33.1172 55.3125 33.1055 55.6172 33.082C56.0859 33.0469 56.4727 32.9062 56.7773 32.6602C57.082 32.4023 57.3105 31.9336 57.4629 31.2539C57.5098 30.9844 57.5566 30.6445 57.6035 30.2344C57.6504 29.8125 57.6914 29.3672 57.7266 28.8984C57.7617 28.418 57.791 27.9316 57.8145 27.4395C57.8379 26.9473 57.8496 26.4785 57.8496 26.0332C57.8496 25.6348 57.8438 25.1777 57.832 24.6621C57.8203 24.1348 57.7793 23.5898 57.709 23.0273C57.6504 22.4648 57.5508 21.9141 57.4102 21.375C57.2812 20.8359 57.0879 20.3555 56.8301 19.9336C56.5723 19.5117 56.2441 19.1719 55.8457 18.9141C55.4473 18.6445 54.9609 18.5098 54.3867 18.5098C53.8945 18.5098 53.4434 18.6328 53.0332 18.8789C52.6348 19.125 52.2773 19.4707 51.9609 19.916C51.6445 20.3496 51.375 20.8652 51.1523 21.4629C50.9297 22.0605 50.7598 22.7168 50.6426 23.4316C50.5137 24.1582 50.4258 24.9082 50.3789 25.6816C50.3438 26.4434 50.3262 27.2051 50.3262 27.9668C50.3262 28.6113 50.3496 29.2324 50.3965 29.8301C50.4434 30.416 50.5078 30.9609 50.5898 31.4648C50.6719 31.957 50.7715 32.3965 50.8887 32.7832C51.0059 33.1699 51.1406 33.4746 51.293 33.6973C51.5156 34.002 51.7559 34.2305 52.0137 34.3828C52.2715 34.5352 52.4883 34.6406 52.6641 34.6992C52.8984 34.7695 53.0625 34.834 53.1562 34.8926C53.2617 34.9395 53.3145 35.0098 53.3145 35.1035C53.3145 35.1738 53.2559 35.2383 53.1387 35.2969C53.0332 35.3555 52.8516 35.3848 52.5938 35.3848C52.3477 35.3848 52.0781 35.3672 51.7852 35.332C51.4922 35.2852 51.1875 35.2383 50.8711 35.1914C50.5547 35.1445 50.2266 35.1035 49.8867 35.0684C49.5469 35.0215 49.2129 34.998 48.8848 34.998C48.5566 34.998 48.2227 35.0098 47.8828 35.0332C47.543 35.0566 47.2148 35.0801 46.8984 35.1035C46.5938 35.127 46.3125 35.1504 46.0547 35.1738C45.7969 35.1973 45.5918 35.209 45.4395 35.209C44.9824 35.209 44.7539 35.0625 44.7539 34.7695C44.7539 34.6641 44.7891 34.5762 44.8594 34.5059C44.9414 34.4238 45.082 34.3711 45.2812 34.3477C45.4453 34.3359 45.5918 34.3242 45.7207 34.3125C45.8496 34.3008 45.9785 34.2949 46.1074 34.2949C46.248 34.2832 46.3887 34.2715 46.5293 34.2598C46.6816 34.248 46.8574 34.2305 47.0566 34.207C47.4316 34.1484 47.6836 34.0137 47.8125 33.8027C47.9531 33.5801 48.0234 33.2812 48.0234 32.9062C48.0234 32.2617 47.9648 31.4766 47.8477 30.5508C47.7422 29.625 47.5957 28.6055 47.4082 27.4922C47.2207 26.3789 46.9922 25.2012 46.7227 23.959C46.4648 22.7051 46.1895 21.4277 45.8965 20.127C45.7559 19.459 45.5918 18.9609 45.4043 18.6328C45.2285 18.3047 44.9707 18.1406 44.6309 18.1406C44.4551 18.1406 44.2734 18.1758 44.0859 18.2461C43.8984 18.3047 43.7109 18.375 43.5234 18.457C43.3477 18.5273 43.1777 18.5977 43.0137 18.668C42.8496 18.7266 42.6973 18.7559 42.5566 18.7559C42.334 18.7559 42.2227 18.6621 42.2227 18.4746C42.2227 18.3223 42.2812 18.2168 42.3984 18.1582C42.5273 18.0879 42.6621 18.0234 42.8027 17.9648C43.1309 17.8359 43.4824 17.6719 43.8574 17.4727C44.2441 17.2734 44.6602 17.0039 45.1055 16.6641C45.5391 16.3242 45.9258 15.9609 46.2656 15.5742C46.6055 15.1875 46.8984 14.8301 47.1445 14.502C47.3906 14.1738 47.5898 13.9043 47.7422 13.6934C47.8945 13.4707 48.0117 13.3594 48.0938 13.3594ZM79.1895 0.316406C79.2832 0.316406 79.3418 0.404297 79.3652 0.580078C79.4004 0.744141 79.418 0.972656 79.418 1.26562C79.418 2.17969 79.4062 3.16992 79.3828 4.23633C79.3711 5.29102 79.3535 6.39844 79.3301 7.55859C79.3066 8.70703 79.2773 9.89063 79.2422 11.1094C79.2188 12.3164 79.1895 13.5234 79.1543 14.7305C79.1191 16.4297 79.084 18.0879 79.0488 19.7051C79.0137 21.3223 78.9844 22.8105 78.9609 24.1699C78.9375 25.5176 78.9141 26.6953 78.8906 27.7031C78.8789 28.7109 78.873 29.4609 78.873 29.9531C78.873 30.5156 78.9199 30.9785 79.0137 31.3418C79.1074 31.7051 79.2305 32.0039 79.3828 32.2383C79.5352 32.4609 79.7109 32.6309 79.9102 32.748C80.1211 32.8652 80.3379 32.9648 80.5605 33.0469C80.8535 33.1523 81.1348 33.2285 81.4043 33.2754C81.6855 33.3105 81.9316 33.3398 82.1426 33.3633C82.3535 33.3867 82.5176 33.4219 82.6348 33.4688C82.7637 33.5156 82.8281 33.6035 82.8281 33.7324C82.8281 33.9082 82.6992 34.0195 82.4414 34.0664C82.1953 34.1133 81.9316 34.1367 81.6504 34.1367C81.252 34.1367 80.7012 34.1074 79.998 34.0488C79.2949 33.9785 78.4863 33.9434 77.5723 33.9434C77.127 33.9434 76.6816 33.9668 76.2363 34.0137C75.791 34.0605 75.3164 34.1133 74.8125 34.1719C74.3203 34.2188 73.7754 34.2656 73.1777 34.3125C72.5918 34.3594 71.9238 34.3828 71.1738 34.3828C70.1191 34.3828 69.1289 34.2539 68.2031 33.9961C67.2773 33.7383 66.4688 33.334 65.7773 32.7832C65.0859 32.2207 64.541 31.5 64.1426 30.6211C63.7441 29.7305 63.5449 28.6582 63.5449 27.4043C63.5449 26.291 63.7441 25.3008 64.1426 24.4336C64.5527 23.5547 65.1035 22.8164 65.7949 22.2188C66.498 21.6211 67.3125 21.1641 68.2383 20.8477C69.1758 20.5312 70.166 20.373 71.209 20.373C72.2988 20.373 73.207 20.4609 73.9336 20.6367C74.6719 20.8125 75.2637 20.9883 75.709 21.1641C75.709 20.0391 75.6973 18.8965 75.6738 17.7363C75.6504 16.5645 75.6211 15.4277 75.5859 14.3262C75.5625 13.2129 75.5332 12.1641 75.498 11.1797C75.4746 10.1953 75.4453 9.32813 75.4102 8.57812C75.3867 7.82812 75.3633 7.21875 75.3398 6.75C75.3164 6.28125 75.3047 6.01172 75.3047 5.94141C75.293 5.76562 75.2754 5.5957 75.252 5.43164C75.2402 5.25586 75.2109 5.10352 75.1641 4.97461C75.1289 4.83398 75.0703 4.72852 74.9883 4.6582C74.9062 4.57617 74.7949 4.53516 74.6543 4.53516C74.4785 4.53516 74.2793 4.57617 74.0566 4.6582C73.834 4.72852 73.6055 4.81055 73.3711 4.9043C73.1484 4.98633 72.9258 5.06836 72.7031 5.15039C72.4805 5.2207 72.2812 5.25586 72.1055 5.25586C72 5.25586 71.9004 5.23828 71.8066 5.20312C71.7129 5.15625 71.666 5.06836 71.666 4.93945C71.666 4.78711 71.7188 4.66406 71.8242 4.57031C71.9414 4.47656 72.1055 4.38281 72.3164 4.28906C72.4688 4.21875 72.6445 4.1543 72.8438 4.0957C73.043 4.02539 73.2832 3.93164 73.5645 3.81445C73.8574 3.68555 74.2031 3.52734 74.6016 3.33984C75 3.14063 75.4746 2.87695 76.0254 2.54883C76.5645 2.23242 77.0156 1.93945 77.3789 1.66992C77.7539 1.40039 78.0586 1.16602 78.293 0.966797C78.5391 0.767578 78.7266 0.609375 78.8555 0.492188C78.9961 0.375 79.1074 0.316406 79.1895 0.316406ZM75.8496 29.4082C75.8496 28.8926 75.8438 28.3359 75.832 27.7383C75.832 27.1289 75.8262 26.5137 75.8145 25.8926C75.8145 25.2598 75.8027 24.6328 75.7793 24.0117C75.7676 23.3906 75.7559 22.8047 75.7441 22.2539C75.3809 22.0664 74.9355 21.9141 74.4082 21.7969C73.8809 21.668 73.2949 21.6035 72.6504 21.6035C71.8652 21.6035 71.1738 21.7383 70.5762 22.0078C69.9785 22.2773 69.4746 22.6582 69.0645 23.1504C68.6543 23.6426 68.3438 24.2344 68.1328 24.9258C67.9219 25.6172 67.8164 26.3906 67.8164 27.2461C67.8164 28.1602 67.916 28.9922 68.1152 29.7422C68.3145 30.4805 68.6074 31.1133 68.9941 31.6406C69.3926 32.168 69.8906 32.5781 70.4883 32.8711C71.0859 33.1523 71.7832 33.293 72.5801 33.293C73.2598 33.293 73.8164 33.1875 74.25 32.9766C74.6953 32.7539 75.0352 32.4785 75.2695 32.1504C75.5039 31.8223 75.6562 31.4297 75.7266 30.9727C75.8086 30.5156 75.8496 29.9941 75.8496 29.4082ZM96.3809 26.6836C96.5449 26.9531 96.6914 27.3164 96.8203 27.7734C96.9609 28.2305 97.0312 28.6934 97.0312 29.1621C97.0312 30.0176 96.8906 30.7852 96.6094 31.4648C96.3281 32.1328 95.9238 32.7012 95.3965 33.1699C94.8691 33.627 94.2305 33.9785 93.4805 34.2246C92.7422 34.4707 91.9102 34.5938 90.9844 34.5938C89.6484 34.5938 88.4531 34.3711 87.3984 33.9258C86.3555 33.4688 85.4766 32.8359 84.7617 32.0273C84.0469 31.2188 83.502 30.2578 83.127 29.1445C82.752 28.0195 82.5645 26.7891 82.5645 25.4531C82.5645 24.2461 82.6934 23.1504 82.9512 22.166C83.209 21.1816 83.5605 20.3027 84.0059 19.5293C84.4512 18.7559 84.9668 18.082 85.5527 17.5078C86.1387 16.9336 86.7598 16.459 87.416 16.084C88.0723 15.709 88.7402 15.4336 89.4199 15.2578C90.0996 15.0703 90.7559 14.9766 91.3887 14.9766C92.0098 14.9766 92.6543 15.0586 93.3223 15.2227C93.9902 15.3867 94.5996 15.668 95.1504 16.0664C95.7129 16.4648 96.1699 16.9922 96.5215 17.6484C96.8848 18.293 97.0664 19.1074 97.0664 20.0918C97.0664 20.9473 96.9375 21.6973 96.6797 22.3418C96.4336 22.9863 96.1055 23.543 95.6953 24.0117C95.2852 24.4805 94.8164 24.8672 94.2891 25.1719C93.7734 25.4766 93.2402 25.7227 92.6895 25.9102C92.1504 26.0859 91.6172 26.209 91.0898 26.2793C90.5742 26.3496 90.1172 26.3848 89.7188 26.3848C89.1445 26.3848 88.582 26.3438 88.0312 26.2617C87.4922 26.1797 87.0703 26.0918 86.7656 25.998C86.8125 26.9121 86.9531 27.7969 87.1875 28.6523C87.4336 29.4961 87.7793 30.2402 88.2246 30.8848C88.6699 31.5293 89.2207 32.0449 89.877 32.4316C90.5449 32.8184 91.3242 33.0117 92.2148 33.0117C92.8359 33.0117 93.3691 32.9062 93.8145 32.6953C94.2715 32.4844 94.6465 32.2031 94.9395 31.8516C95.2324 31.4883 95.4492 31.0723 95.5898 30.6035C95.7305 30.1348 95.8008 29.6426 95.8008 29.127C95.8008 28.8223 95.7773 28.5059 95.7305 28.1777C95.6953 27.8496 95.625 27.5391 95.5195 27.2461C95.4492 27.0703 95.3906 26.9062 95.3438 26.7539C95.2969 26.6016 95.2734 26.4785 95.2734 26.3848C95.2734 26.1504 95.3789 26.0332 95.5898 26.0332C95.6953 26.0332 95.8184 26.0859 95.959 26.1914C96.1113 26.2969 96.252 26.4609 96.3809 26.6836ZM86.6953 24.8379C87 24.9316 87.3457 25.0137 87.7324 25.084C88.1191 25.1426 88.6055 25.1719 89.1914 25.1719C89.8711 25.1719 90.498 25.043 91.0723 24.7852C91.6465 24.5273 92.1387 24.1699 92.5488 23.7129C92.959 23.2441 93.2812 22.6816 93.5156 22.0254C93.75 21.3691 93.8672 20.6367 93.8672 19.8281C93.8672 19.1133 93.7852 18.5156 93.6211 18.0352C93.4688 17.543 93.2637 17.1504 93.0059 16.8574C92.748 16.5645 92.4492 16.3594 92.1094 16.2422C91.7812 16.1133 91.4414 16.0488 91.0898 16.0488C90.6445 16.0488 90.1641 16.1836 89.6484 16.4531C89.1328 16.7227 88.6523 17.1914 88.207 17.8594C87.7734 18.5273 87.4102 19.4297 87.1172 20.5664C86.8359 21.6914 86.6953 23.1152 86.6953 24.8379ZM104.326 13.5703C104.326 13.7109 104.32 13.9102 104.309 14.168C104.297 14.4141 104.291 14.6719 104.291 14.9414C104.291 15.2812 104.309 15.6445 104.344 16.0312C104.391 16.4062 104.443 16.7578 104.502 17.0859C104.572 17.4023 104.637 17.6719 104.695 17.8945C104.766 18.1055 104.824 18.2109 104.871 18.2109C104.918 18.2109 104.982 18.041 105.064 17.7012C105.158 17.3613 105.287 16.9336 105.451 16.418C105.627 15.9023 105.85 15.3516 106.119 14.7656C106.389 14.168 106.734 13.6113 107.156 13.0957C107.578 12.5801 108.082 12.1523 108.668 11.8125C109.266 11.4727 109.969 11.3027 110.777 11.3027C111.527 11.3027 112.154 11.4316 112.658 11.6895C113.174 11.9473 113.584 12.2695 113.889 12.6562C114.193 13.043 114.41 13.4648 114.539 13.9219C114.668 14.3672 114.732 14.7891 114.732 15.1875C114.732 15.8086 114.65 16.3535 114.486 16.8223C114.322 17.2793 114.1 17.6602 113.818 17.9648C113.549 18.2695 113.238 18.5039 112.887 18.668C112.535 18.8203 112.178 18.8965 111.814 18.8965C111.146 18.8965 110.602 18.7383 110.18 18.4219C109.758 18.1055 109.547 17.6426 109.547 17.0332C109.547 16.7051 109.588 16.4238 109.67 16.1895C109.764 15.9551 109.881 15.7559 110.021 15.5918C110.174 15.4277 110.35 15.293 110.549 15.1875C110.76 15.0703 110.988 14.9766 111.234 14.9062C111.738 14.7539 112.078 14.5664 112.254 14.3438C112.441 14.1211 112.535 13.8633 112.535 13.5703C112.535 13.3945 112.5 13.2246 112.43 13.0605C112.371 12.8965 112.266 12.75 112.113 12.6211C111.973 12.4805 111.785 12.3691 111.551 12.2871C111.328 12.2051 111.053 12.1641 110.725 12.1641C110.057 12.1641 109.471 12.3223 108.967 12.6387C108.463 12.9434 108.023 13.3594 107.648 13.8867C107.273 14.4023 106.963 15 106.717 15.6797C106.471 16.3594 106.271 17.0742 106.119 17.8242C105.967 18.5625 105.855 19.3125 105.785 20.0742C105.727 20.8242 105.697 21.5273 105.697 22.1836C105.697 22.7812 105.721 23.4316 105.768 24.1348C105.814 24.8262 105.873 25.5234 105.943 26.2266C106.025 26.9297 106.113 27.6152 106.207 28.2832C106.301 28.9512 106.389 29.5605 106.471 30.1113C106.564 30.6621 106.646 31.1367 106.717 31.5352C106.787 31.9336 106.84 32.209 106.875 32.3613C107.004 32.8887 107.203 33.2578 107.473 33.4688C107.754 33.668 108.123 33.7676 108.58 33.7676C108.779 33.7676 108.984 33.7617 109.195 33.75C109.418 33.7383 109.582 33.7324 109.688 33.7324C110.004 33.7324 110.162 33.8496 110.162 34.084C110.162 34.2715 110.074 34.3945 109.898 34.4531C109.758 34.5117 109.506 34.5469 109.143 34.5586C108.791 34.5703 108.375 34.582 107.895 34.5938C107.426 34.6055 106.916 34.623 106.365 34.6465C105.814 34.6699 105.281 34.7109 104.766 34.7695C104.191 34.8398 103.635 34.9395 103.096 35.0684C102.557 35.1855 102.059 35.3027 101.602 35.4199C101.145 35.5254 100.74 35.6191 100.389 35.7012C100.037 35.7832 99.7559 35.8242 99.5449 35.8242C99.3223 35.8242 99.1699 35.7773 99.0879 35.6836C99.0059 35.5898 98.9648 35.4902 98.9648 35.3848C98.9648 35.209 99.0352 35.0859 99.1758 35.0156C99.3281 34.9336 99.5332 34.8516 99.791 34.7695C99.9902 34.7109 100.225 34.6523 100.494 34.5938C100.775 34.5234 101.104 34.4062 101.479 34.2422C101.854 34.0781 102.111 33.8613 102.252 33.5918C102.404 33.3105 102.48 32.8887 102.48 32.3262C102.48 32.1504 102.469 31.8574 102.445 31.4473C102.422 31.0254 102.387 30.5273 102.34 29.9531C102.305 29.3789 102.258 28.752 102.199 28.0723C102.152 27.3809 102.1 26.6777 102.041 25.9629C101.982 25.2363 101.918 24.5156 101.848 23.8008C101.789 23.0859 101.73 22.418 101.672 21.7969C101.613 21.1641 101.555 20.6016 101.496 20.1094C101.449 19.6172 101.408 19.2246 101.373 18.9316C101.326 18.5801 101.256 18.3047 101.162 18.1055C101.068 17.8945 100.957 17.7363 100.828 17.6309C100.699 17.5254 100.547 17.4609 100.371 17.4375C100.207 17.4023 100.025 17.3848 99.8262 17.3848H99.1055C99.0469 17.3848 98.9707 17.3848 98.877 17.3848C98.7949 17.373 98.7129 17.3555 98.6309 17.332C98.5488 17.2969 98.4785 17.25 98.4199 17.1914C98.373 17.1328 98.3496 17.0566 98.3496 16.9629C98.3496 16.834 98.4023 16.7402 98.5078 16.6816C98.6133 16.623 98.7422 16.582 98.8945 16.5586C99.4805 16.4883 100.008 16.3887 100.477 16.2598C100.957 16.1309 101.426 15.8965 101.883 15.5566C102.164 15.334 102.457 15.041 102.762 14.6777C103.078 14.3027 103.336 13.9102 103.535 13.5C103.676 13.207 103.828 13.0605 103.992 13.0605C104.145 13.0605 104.238 13.1191 104.273 13.2363C104.309 13.3535 104.326 13.4648 104.326 13.5703Z" fill="black"/>
<path d="M36.7559 7.80469C37.4473 7.80469 37.998 7.98633 38.4082 8.34961C38.8184 8.71289 39.0234 9.22852 39.0234 9.89648C39.0234 10.3418 38.9531 10.7168 38.8125 11.0215C38.6719 11.3145 38.4902 11.5547 38.2676 11.7422C38.0449 11.918 37.7988 12.0469 37.5293 12.1289C37.2715 12.1992 37.0137 12.2344 36.7559 12.2344C36.5332 12.2344 36.2988 12.1992 36.0527 12.1289C35.8066 12.0586 35.5781 11.9414 35.3672 11.7773C35.1562 11.6016 34.9805 11.3789 34.8398 11.1094C34.7109 10.8281 34.6465 10.4824 34.6465 10.0723C34.6465 9.63867 34.7168 9.28125 34.8574 9C34.998 8.70703 35.1738 8.47266 35.3848 8.29688C35.5957 8.12109 35.8242 7.99805 36.0703 7.92773C36.3164 7.8457 36.5449 7.80469 36.7559 7.80469ZM39.252 13.5703C39.3691 13.5703 39.4277 13.7051 39.4277 13.9746C39.4277 14.1504 39.4043 14.4434 39.3574 14.8535C39.3223 15.252 39.2754 15.6797 39.2168 16.1367C39.123 16.8633 39.0293 17.6719 38.9355 18.5625C38.8418 19.4414 38.748 20.3496 38.6543 21.2871C38.5723 22.2129 38.4902 23.1328 38.4082 24.0469C38.3379 24.9609 38.2734 25.8105 38.2148 26.5957C38.1562 27.3691 38.1094 28.0547 38.0742 28.6523C38.0391 29.2383 38.0215 29.6719 38.0215 29.9531C38.0215 30.3164 38.0449 30.6152 38.0918 30.8496C38.1387 31.084 38.1973 31.2773 38.2676 31.4297C38.3379 31.582 38.4141 31.7051 38.4961 31.7988C38.5898 31.8926 38.6836 31.9746 38.7773 32.0449C38.8828 32.1152 39.0117 32.1797 39.1641 32.2383C39.3164 32.2969 39.4805 32.3555 39.6562 32.4141C39.832 32.4609 40.0078 32.502 40.1836 32.5371C40.3711 32.5723 40.541 32.5957 40.6934 32.6074C40.9395 32.6543 41.1387 32.6895 41.291 32.7129C41.4434 32.7363 41.5195 32.8125 41.5195 32.9414C41.5195 33.1758 41.2676 33.293 40.7637 33.293C40.4121 33.293 40.0605 33.2695 39.709 33.2227C39.3574 33.1641 38.9941 33.0996 38.6191 33.0293C38.2559 32.959 37.875 32.9004 37.4766 32.8535C37.0781 32.7949 36.6504 32.7656 36.1934 32.7656C35.7715 32.7656 35.3906 32.7773 35.0508 32.8008C34.7109 32.8242 34.4004 32.8535 34.1191 32.8887C33.8379 32.9238 33.5742 32.9531 33.3281 32.9766C33.082 33 32.8359 33.0117 32.5898 33.0117C32.3906 33.0117 32.209 32.9883 32.0449 32.9414C31.8809 32.8828 31.7988 32.7715 31.7988 32.6074C31.7988 32.4434 31.8867 32.332 32.0625 32.2734C32.25 32.2031 32.4375 32.1504 32.625 32.1152C32.8594 32.0684 33.0879 32.0156 33.3105 31.957C33.5332 31.8984 33.7324 31.8105 33.9082 31.6934C34.0957 31.5645 34.248 31.4004 34.3652 31.2012C34.4941 30.9902 34.5762 30.7207 34.6113 30.3926C34.6582 29.748 34.6934 29.0918 34.7168 28.4238C34.7402 27.7559 34.7578 27.0996 34.7695 26.4551C34.7812 25.7988 34.7871 25.166 34.7871 24.5566C34.7871 23.9355 34.7871 23.3555 34.7871 22.8164C34.7871 22.1719 34.7871 21.5859 34.7871 21.0586C34.7871 20.5195 34.7754 20.0625 34.752 19.6875C34.7285 19.0898 34.6582 18.6211 34.541 18.2812C34.4355 17.9414 34.2773 17.6895 34.0664 17.5254C33.8672 17.3613 33.6094 17.2559 33.293 17.209C32.9766 17.1504 32.5957 17.1035 32.1504 17.0684C32.0215 17.0449 31.916 17.0039 31.834 16.9453C31.7637 16.8867 31.7285 16.793 31.7285 16.6641C31.7285 16.4414 31.9043 16.3125 32.2559 16.2773C32.4316 16.2656 32.6543 16.248 32.9238 16.2246C33.1934 16.1895 33.5039 16.1426 33.8555 16.084C34.2188 16.0254 34.6113 15.9434 35.0332 15.8379C35.4551 15.7207 35.9004 15.5625 36.3691 15.3633C36.8848 15.1523 37.3066 14.9414 37.6348 14.7305C37.9746 14.5195 38.25 14.332 38.4609 14.168C38.6719 13.9922 38.8359 13.8516 38.9531 13.7461C39.0703 13.6289 39.1699 13.5703 39.252 13.5703ZM231.381 13.5703C231.381 13.7109 231.375 13.9102 231.363 14.168C231.352 14.4141 231.346 14.6719 231.346 14.9414C231.346 15.2812 231.363 15.6445 231.398 16.0312C231.445 16.4062 231.498 16.7578 231.557 17.0859C231.627 17.4023 231.691 17.6719 231.75 17.8945C231.82 18.1055 231.879 18.2109 231.926 18.2109C231.973 18.2109 232.037 18.041 232.119 17.7012C232.213 17.3613 232.342 16.9336 232.506 16.418C232.682 15.9023 232.904 15.3516 233.174 14.7656C233.443 14.168 233.789 13.6113 234.211 13.0957C234.633 12.5801 235.137 12.1523 235.723 11.8125C236.32 11.4727 237.023 11.3027 237.832 11.3027C238.582 11.3027 239.209 11.4316 239.713 11.6895C240.229 11.9473 240.639 12.2695 240.943 12.6562C241.248 13.043 241.465 13.4648 241.594 13.9219C241.723 14.3672 241.787 14.7891 241.787 15.1875C241.787 15.8086 241.705 16.3535 241.541 16.8223C241.377 17.2793 241.154 17.6602 240.873 17.9648C240.604 18.2695 240.293 18.5039 239.941 18.668C239.59 18.8203 239.232 18.8965 238.869 18.8965C238.201 18.8965 237.656 18.7383 237.234 18.4219C236.812 18.1055 236.602 17.6426 236.602 17.0332C236.602 16.7051 236.643 16.4238 236.725 16.1895C236.818 15.9551 236.936 15.7559 237.076 15.5918C237.229 15.4277 237.404 15.293 237.604 15.1875C237.814 15.0703 238.043 14.9766 238.289 14.9062C238.793 14.7539 239.133 14.5664 239.309 14.3438C239.496 14.1211 239.59 13.8633 239.59 13.5703C239.59 13.3945 239.555 13.2246 239.484 13.0605C239.426 12.8965 239.32 12.75 239.168 12.6211C239.027 12.4805 238.84 12.3691 238.605 12.2871C238.383 12.2051 238.107 12.1641 237.779 12.1641C237.111 12.1641 236.525 12.3223 236.021 12.6387C235.518 12.9434 235.078 13.3594 234.703 13.8867C234.328 14.4023 234.018 15 233.771 15.6797C233.525 16.3594 233.326 17.0742 233.174 17.8242C233.021 18.5625 232.91 19.3125 232.84 20.0742C232.781 20.8242 232.752 21.5273 232.752 22.1836C232.752 22.7812 232.775 23.4316 232.822 24.1348C232.869 24.8262 232.928 25.5234 232.998 26.2266C233.08 26.9297 233.168 27.6152 233.262 28.2832C233.355 28.9512 233.443 29.5605 233.525 30.1113C233.619 30.6621 233.701 31.1367 233.771 31.5352C233.842 31.9336 233.895 32.209 233.93 32.3613C234.059 32.8887 234.258 33.2578 234.527 33.4688C234.809 33.668 235.178 33.7676 235.635 33.7676C235.834 33.7676 236.039 33.7617 236.25 33.75C236.473 33.7383 236.637 33.7324 236.742 33.7324C237.059 33.7324 237.217 33.8496 237.217 34.084C237.217 34.2715 237.129 34.3945 236.953 34.4531C236.812 34.5117 236.561 34.5469 236.197 34.5586C235.846 34.5703 235.43 34.582 234.949 34.5938C234.48 34.6055 233.971 34.623 233.42 34.6465C232.869 34.6699 232.336 34.7109 231.82 34.7695C231.246 34.8398 230.689 34.9395 230.15 35.0684C229.611 35.1855 229.113 35.3027 228.656 35.4199C228.199 35.5254 227.795 35.6191 227.443 35.7012C227.092 35.7832 226.811 35.8242 226.6 35.8242C226.377 35.8242 226.225 35.7773 226.143 35.6836C226.061 35.5898 226.02 35.4902 226.02 35.3848C226.02 35.209 226.09 35.0859 226.23 35.0156C226.383 34.9336 226.588 34.8516 226.846 34.7695C227.045 34.7109 227.279 34.6523 227.549 34.5938C227.83 34.5234 228.158 34.4062 228.533 34.2422C228.908 34.0781 229.166 33.8613 229.307 33.5918C229.459 33.3105 229.535 32.8887 229.535 32.3262C229.535 32.1504 229.523 31.8574 229.5 31.4473C229.477 31.0254 229.441 30.5273 229.395 29.9531C229.359 29.3789 229.312 28.752 229.254 28.0723C229.207 27.3809 229.154 26.6777 229.096 25.9629C229.037 25.2363 228.973 24.5156 228.902 23.8008C228.844 23.0859 228.785 22.418 228.727 21.7969C228.668 21.1641 228.609 20.6016 228.551 20.1094C228.504 19.6172 228.463 19.2246 228.428 18.9316C228.381 18.5801 228.311 18.3047 228.217 18.1055C228.123 17.8945 228.012 17.7363 227.883 17.6309C227.754 17.5254 227.602 17.4609 227.426 17.4375C227.262 17.4023 227.08 17.3848 226.881 17.3848H226.16C226.102 17.3848 226.025 17.3848 225.932 17.3848C225.85 17.373 225.768 17.3555 225.686 17.332C225.604 17.2969 225.533 17.25 225.475 17.1914C225.428 17.1328 225.404 17.0566 225.404 16.9629C225.404 16.834 225.457 16.7402 225.562 16.6816C225.668 16.623 225.797 16.582 225.949 16.5586C226.535 16.4883 227.062 16.3887 227.531 16.2598C228.012 16.1309 228.48 15.8965 228.938 15.5566C229.219 15.334 229.512 15.041 229.816 14.6777C230.133 14.3027 230.391 13.9102 230.59 13.5C230.73 13.207 230.883 13.0605 231.047 13.0605C231.199 13.0605 231.293 13.1191 231.328 13.2363C231.363 13.3535 231.381 13.4648 231.381 13.5703Z" fill="#FFFF78"/>
<path d="M128.268 9.07031C128.994 9.07031 129.75 9.1582 130.535 9.33398C131.332 9.49805 132.059 9.81445 132.715 10.2832C133.371 10.7402 133.91 11.3789 134.332 12.1992C134.754 13.0195 134.965 14.0742 134.965 15.3633C134.965 16.5586 134.824 17.6074 134.543 18.5098C134.273 19.4004 133.91 20.1738 133.453 20.8301C132.996 21.4746 132.469 22.0078 131.871 22.4297C131.285 22.8516 130.676 23.1914 130.043 23.4492C129.41 23.6953 128.777 23.8711 128.145 23.9766C127.512 24.0703 126.926 24.1172 126.387 24.1172C125.613 24.1172 124.951 24.082 124.4 24.0117C123.85 23.9297 123.387 23.8359 123.012 23.7305C123.023 24.3281 123.029 24.9492 123.029 25.5938C123.041 26.2266 123.047 26.8301 123.047 27.4043C123.059 27.9668 123.064 28.4707 123.064 28.916C123.076 29.3496 123.082 29.6602 123.082 29.8477C123.094 30.2578 123.117 30.7734 123.152 31.3945C123.188 32.0039 123.24 32.6367 123.311 33.293C123.393 33.9492 123.492 34.5938 123.609 35.2266C123.738 35.8477 123.896 36.3691 124.084 36.791C124.283 37.2363 124.541 37.6172 124.857 37.9336C125.174 38.25 125.514 38.5137 125.877 38.7246C126.252 38.9355 126.639 39.1055 127.037 39.2344C127.436 39.3633 127.822 39.4629 128.197 39.5332C128.385 39.5684 128.572 39.5977 128.76 39.6211C128.959 39.6562 129.135 39.6914 129.287 39.7266C129.439 39.7734 129.562 39.8262 129.656 39.8848C129.762 39.9551 129.814 40.043 129.814 40.1484C129.814 40.2891 129.756 40.4004 129.639 40.4824C129.521 40.5645 129.281 40.6055 128.918 40.6055C128.543 40.6055 128.068 40.5469 127.494 40.4297C126.92 40.3242 126.275 40.2012 125.561 40.0605C124.857 39.9316 124.107 39.8086 123.311 39.6914C122.514 39.5859 121.717 39.5332 120.92 39.5332C120.053 39.5332 119.232 39.5801 118.459 39.6738C117.697 39.7676 117.012 39.8672 116.402 39.9727C115.805 40.0898 115.295 40.1953 114.873 40.2891C114.451 40.3828 114.152 40.4297 113.977 40.4297C113.93 40.4297 113.871 40.4238 113.801 40.4121C113.742 40.4121 113.678 40.4004 113.607 40.377C113.549 40.3535 113.496 40.3184 113.449 40.2715C113.414 40.2246 113.396 40.1543 113.396 40.0605C113.396 39.9316 113.473 39.8262 113.625 39.7441C113.789 39.6621 114 39.5801 114.258 39.498C114.527 39.416 114.826 39.3164 115.154 39.1992C115.494 39.0938 115.834 38.9531 116.174 38.7773C116.842 38.4141 117.346 37.9395 117.686 37.3535C118.025 36.7676 118.277 36.0879 118.441 35.3145C118.512 34.9629 118.582 34.4531 118.652 33.7852C118.734 33.1172 118.811 32.3555 118.881 31.5C118.951 30.6328 119.016 29.707 119.074 28.7227C119.145 27.7266 119.203 26.7363 119.25 25.752C119.297 24.7559 119.332 23.8008 119.355 22.8867C119.391 21.9609 119.408 21.1348 119.408 20.4082C119.408 18.9785 119.367 17.7188 119.285 16.6289C119.203 15.5391 119.027 14.6895 118.758 14.0801C118.547 13.5996 118.26 13.2188 117.896 12.9375C117.545 12.6445 117.152 12.4219 116.719 12.2695C116.297 12.1172 115.852 12.0176 115.383 11.9707C114.914 11.9121 114.457 11.8711 114.012 11.8477C113.426 11.8359 113.033 11.7949 112.834 11.7246C112.635 11.6426 112.535 11.4902 112.535 11.2676C112.535 10.9277 112.834 10.7578 113.432 10.7578C113.689 10.7578 114.1 10.7754 114.662 10.8105C115.225 10.8457 115.898 10.8633 116.684 10.8633C117.258 10.8633 117.885 10.8457 118.564 10.8105C119.244 10.7754 119.947 10.7109 120.674 10.6172C121.283 10.5469 121.822 10.459 122.291 10.3535C122.771 10.2363 123.211 10.125 123.609 10.0195C124.02 9.90234 124.4 9.79102 124.752 9.68555C125.104 9.56836 125.461 9.46289 125.824 9.36914C126.188 9.27539 126.562 9.20508 126.949 9.1582C127.348 9.09961 127.787 9.07031 128.268 9.07031ZM123.223 14.4316C123.176 14.9238 123.141 15.4922 123.117 16.1367C123.094 16.7695 123.07 17.4492 123.047 18.1758C123.035 18.9023 123.023 19.6582 123.012 20.4434C123.012 21.2285 123.012 22.0078 123.012 22.7812C123.387 22.8984 123.809 22.9863 124.277 23.0449C124.746 23.0918 125.309 23.1152 125.965 23.1152C126.844 23.1152 127.588 22.9043 128.197 22.4824C128.818 22.0605 129.316 21.5039 129.691 20.8125C130.078 20.1094 130.354 19.3184 130.518 18.4395C130.693 17.5488 130.781 16.6465 130.781 15.7324C130.781 14.9824 130.711 14.2559 130.57 13.5527C130.441 12.8496 130.225 12.2344 129.92 11.707C129.615 11.168 129.205 10.7402 128.689 10.4238C128.174 10.0957 127.541 9.93164 126.791 9.93164C126.205 9.93164 125.701 10.0371 125.279 10.248C124.857 10.459 124.506 10.7637 124.225 11.1621C123.943 11.5488 123.721 12.0234 123.557 12.5859C123.404 13.1367 123.293 13.752 123.223 14.4316ZM143.648 3.12891C143.648 3.25781 143.648 3.5625 143.648 4.04297C143.648 4.52344 143.648 5.09766 143.648 5.76562C143.66 6.43359 143.666 7.14844 143.666 7.91016C143.678 8.67187 143.695 9.4043 143.719 10.1074C143.742 11.0918 143.783 12.2285 143.842 13.5176C143.9 14.8066 143.959 16.1484 144.018 17.543C144.088 18.9258 144.158 20.3203 144.229 21.7266C144.311 23.1328 144.387 24.4512 144.457 25.6816C144.539 26.9004 144.609 27.9844 144.668 28.9336C144.727 29.8828 144.773 30.6035 144.809 31.0957C144.855 31.7871 144.949 32.332 145.09 32.7305C145.23 33.1289 145.424 33.4453 145.67 33.6797C145.928 33.9141 146.244 34.0957 146.619 34.2246C147.006 34.3535 147.469 34.4883 148.008 34.6289C148.207 34.6875 148.336 34.752 148.395 34.8223C148.453 34.8926 148.482 34.9746 148.482 35.0684C148.482 35.1738 148.441 35.2676 148.359 35.3496C148.277 35.4199 148.125 35.4551 147.902 35.4551C147.797 35.4551 147.58 35.4434 147.252 35.4199C146.936 35.3965 146.561 35.3672 146.127 35.332C145.693 35.2969 145.219 35.2676 144.703 35.2441C144.199 35.2207 143.707 35.209 143.227 35.209C142.84 35.209 142.43 35.2266 141.996 35.2617C141.562 35.2969 141.141 35.332 140.73 35.3672C140.32 35.4023 139.934 35.4375 139.57 35.4727C139.219 35.5078 138.926 35.5254 138.691 35.5254C138.527 35.5254 138.363 35.4961 138.199 35.4375C138.047 35.3789 137.971 35.2441 137.971 35.0332C137.971 34.7168 138.199 34.5586 138.656 34.5586C138.961 34.5586 139.301 34.541 139.676 34.5059C140.062 34.4707 140.379 34.4062 140.625 34.3125C140.824 34.2422 140.982 34.1426 141.1 34.0137C141.217 33.8848 141.305 33.7441 141.363 33.5918C141.434 33.4277 141.48 33.2637 141.504 33.0996C141.527 32.9238 141.539 32.748 141.539 32.5723C141.539 32.3613 141.521 32.0273 141.486 31.5703C141.463 31.1016 141.428 30.5566 141.381 29.9355C141.334 29.3145 141.275 28.6289 141.205 27.8789C141.146 27.1289 141.082 26.3613 141.012 25.5762C140.941 24.7793 140.871 23.9883 140.801 23.2031C140.73 22.418 140.66 21.6738 140.59 20.9707C140.52 20.2676 140.455 19.6289 140.396 19.0547C140.35 18.4805 140.309 18.0117 140.273 17.6484C140.215 17.1094 140.156 16.5527 140.098 15.9785C140.039 15.3926 139.98 14.8184 139.922 14.2559C139.863 13.6934 139.799 13.1543 139.729 12.6387C139.658 12.123 139.588 11.6543 139.518 11.2324C139.447 10.8223 139.324 10.5059 139.148 10.2832C138.984 10.0488 138.732 9.93164 138.393 9.93164C138.123 9.93164 137.807 9.99609 137.443 10.125C137.092 10.2539 136.734 10.3945 136.371 10.5469C136.008 10.6992 135.668 10.8398 135.352 10.9688C135.023 11.0977 134.766 11.1621 134.578 11.1621C134.449 11.1621 134.338 11.1328 134.244 11.0742C134.139 11.0039 134.086 10.8867 134.086 10.7227C134.086 10.5 134.203 10.3125 134.438 10.1602C134.543 10.0781 134.684 9.99609 134.859 9.91406C135.035 9.83203 135.27 9.7207 135.562 9.58008C135.844 9.42773 136.195 9.22852 136.617 8.98242C137.039 8.73633 137.549 8.4082 138.146 7.99805C138.779 7.56445 139.354 7.10742 139.869 6.62695C140.385 6.14648 140.842 5.68359 141.24 5.23828C141.65 4.78125 141.99 4.36523 142.26 3.99023C142.541 3.61523 142.752 3.31641 142.893 3.09375C143.021 2.91797 143.121 2.77734 143.191 2.67188C143.262 2.56641 143.344 2.51367 143.438 2.51367C143.531 2.51367 143.59 2.58398 143.613 2.72461C143.637 2.85352 143.648 2.98828 143.648 3.12891Z" fill="#916BBF"/>
<path d="M154.072 23.3262C153.639 23.3262 153.229 23.2441 152.842 23.0801C152.467 22.916 152.139 22.6699 151.857 22.3418C151.576 22.0137 151.354 21.6035 151.189 21.1113C151.025 20.6191 150.943 20.0391 150.943 19.3711C150.943 18.6445 151.043 17.9355 151.242 17.2441C151.453 16.541 151.775 15.9199 152.209 15.3809C152.643 14.8301 153.193 14.3906 153.861 14.0625C154.541 13.7344 155.355 13.5703 156.305 13.5703C157.09 13.5703 157.781 13.6758 158.379 13.8867C158.988 14.0859 159.521 14.3613 159.979 14.7129C160.436 15.0527 160.822 15.4512 161.139 15.9082C161.467 16.3652 161.742 16.8457 161.965 17.3496C162.188 17.8418 162.369 18.3457 162.51 18.8613C162.662 19.3652 162.791 19.8457 162.896 20.3027C162.955 20.5605 163.025 20.9297 163.107 21.4102C163.201 21.8789 163.301 22.4238 163.406 23.0449C163.512 23.666 163.623 24.334 163.74 25.0488C163.857 25.752 163.975 26.4668 164.092 27.1934C164.209 27.9199 164.32 28.6289 164.426 29.3203C164.543 30 164.648 30.627 164.742 31.2012C164.836 31.7637 164.912 32.25 164.971 32.6602C165.041 33.0586 165.094 33.334 165.129 33.4863C165.199 33.8496 165.275 34.2188 165.357 34.5938C165.451 34.9688 165.562 35.3145 165.691 35.6309C165.832 35.9355 166.002 36.1875 166.201 36.3867C166.4 36.5859 166.652 36.6855 166.957 36.6855C167.133 36.6855 167.285 36.6445 167.414 36.5625C167.543 36.4805 167.643 36.3691 167.713 36.2285C167.795 36.0879 167.854 35.9297 167.889 35.7539C167.924 35.5781 167.941 35.3965 167.941 35.209C167.941 34.9863 167.936 34.7637 167.924 34.541C167.912 34.3066 167.906 34.1074 167.906 33.9434C167.906 33.7676 167.93 33.6152 167.977 33.4863C168.023 33.3574 168.117 33.293 168.258 33.293C168.387 33.293 168.486 33.3691 168.557 33.5215C168.639 33.6621 168.697 33.832 168.732 34.0312C168.779 34.2188 168.809 34.4121 168.82 34.6113C168.832 34.7988 168.838 34.9395 168.838 35.0332C168.838 35.4434 168.803 35.9062 168.732 36.4219C168.662 36.9375 168.516 37.4355 168.293 37.916C168.082 38.4082 167.73 38.8125 167.238 39.1289C166.746 39.4453 166.178 39.6035 165.533 39.6035C164.971 39.6035 164.484 39.5215 164.074 39.3574C163.676 39.1934 163.33 38.9883 163.037 38.7422C162.756 38.4961 162.516 38.2324 162.316 37.9512C162.129 37.6699 161.977 37.4062 161.859 37.1602C161.531 36.5273 161.279 35.8359 161.104 35.0859C160.939 34.3242 160.805 33.5977 160.699 32.9062C160.523 33.1992 160.254 33.5625 159.891 33.9961C159.539 34.4297 159.1 34.8457 158.572 35.2441C158.045 35.6426 157.436 35.9824 156.744 36.2637C156.053 36.5449 155.285 36.6855 154.441 36.6855C153.504 36.6855 152.701 36.5508 152.033 36.2812C151.377 36.0234 150.838 35.6719 150.416 35.2266C149.994 34.7695 149.684 34.2422 149.484 33.6445C149.285 33.0352 149.186 32.3906 149.186 31.7109C149.186 30.9844 149.32 30.252 149.59 29.5137C149.859 28.7754 150.299 28.1074 150.908 27.5098C151.529 26.9121 152.332 26.4258 153.316 26.0508C154.312 25.6758 155.525 25.4883 156.955 25.4883C157.283 25.4883 157.6 25.5059 157.904 25.541C158.221 25.5645 158.502 25.5938 158.748 25.6289C159.006 25.6641 159.223 25.6992 159.398 25.7344C159.586 25.7695 159.721 25.793 159.803 25.8047C159.732 24.7969 159.645 23.7891 159.539 22.7812C159.492 22.3594 159.439 21.9141 159.381 21.4453C159.334 20.9766 159.281 20.5078 159.223 20.0391C159.164 19.5586 159.1 19.0898 159.029 18.6328C158.959 18.1758 158.883 17.748 158.801 17.3496C158.613 16.4473 158.244 15.7324 157.693 15.2051C157.154 14.666 156.463 14.3965 155.619 14.3965C155.162 14.3965 154.758 14.4785 154.406 14.6426C154.066 14.8066 153.773 15.0176 153.527 15.2754C153.293 15.5332 153.117 15.8262 153 16.1543C152.883 16.4707 152.824 16.7871 152.824 17.1035C152.824 17.4434 152.906 17.7305 153.07 17.9648C153.234 18.1875 153.434 18.3867 153.668 18.5625C153.914 18.7383 154.178 18.9082 154.459 19.0723C154.74 19.2246 154.998 19.4062 155.232 19.6172C155.479 19.8164 155.684 20.0625 155.848 20.3555C156.012 20.6367 156.094 20.9941 156.094 21.4277C156.094 22.002 155.895 22.4648 155.496 22.8164C155.109 23.1562 154.635 23.3262 154.072 23.3262ZM159.943 26.8945C159.861 26.8594 159.715 26.8184 159.504 26.7715C159.305 26.7129 159.064 26.6602 158.783 26.6133C158.502 26.5547 158.197 26.5078 157.869 26.4727C157.553 26.4375 157.236 26.4199 156.92 26.4199C156.299 26.4199 155.719 26.5078 155.18 26.6836C154.652 26.8594 154.195 27.123 153.809 27.4746C153.422 27.8145 153.117 28.248 152.895 28.7754C152.672 29.291 152.561 29.8887 152.561 30.5684C152.561 31.1895 152.66 31.7051 152.859 32.1152C153.07 32.5137 153.334 32.8301 153.65 33.0645C153.979 33.2988 154.336 33.4629 154.723 33.5566C155.121 33.6504 155.508 33.6973 155.883 33.6973C156.48 33.6973 157.049 33.6035 157.588 33.416C158.127 33.2285 158.602 33.0117 159.012 32.7656C159.422 32.5195 159.756 32.2793 160.014 32.0449C160.271 31.8105 160.43 31.6523 160.488 31.5703C160.406 30.7852 160.33 30.0703 160.26 29.4258C160.225 29.1445 160.189 28.8691 160.154 28.5996C160.131 28.3301 160.102 28.0781 160.066 27.8438C160.043 27.6094 160.02 27.4102 159.996 27.2461C159.973 27.082 159.955 26.9648 159.943 26.8945ZM172.969 13.3594C173.062 13.3594 173.156 13.5117 173.25 13.8164C173.344 14.1094 173.438 14.4961 173.531 14.9766C173.625 15.457 173.719 16.0137 173.812 16.6465C173.906 17.2676 174 17.9004 174.094 18.5449L174.727 22.9746C174.785 22.5879 174.885 22.1426 175.025 21.6387C175.178 21.1348 175.377 20.6133 175.623 20.0742C175.869 19.5352 176.168 19.0078 176.52 18.4922C176.871 17.9766 177.275 17.5137 177.732 17.1035C178.201 16.6934 178.723 16.3652 179.297 16.1191C179.883 15.8613 180.533 15.7324 181.248 15.7324C182.127 15.7324 182.889 15.9023 183.533 16.2422C184.178 16.5703 184.711 17.0332 185.133 17.6309C185.555 18.2168 185.865 18.9199 186.064 19.7402C186.264 20.5605 186.363 21.457 186.363 22.4297C186.363 23.3086 186.311 24.1934 186.205 25.084C186.111 25.9629 186.006 26.8301 185.889 27.6855C185.783 28.541 185.678 29.3672 185.572 30.1641C185.479 30.9609 185.432 31.7051 185.432 32.3965C185.432 32.8066 185.467 33.1641 185.537 33.4688C185.607 33.7734 185.713 34.0547 185.854 34.3125C186.018 34.5586 186.217 34.7754 186.451 34.9629C186.697 35.1387 186.926 35.3086 187.137 35.4727C187.359 35.625 187.547 35.7832 187.699 35.9473C187.863 36.0996 187.945 36.2637 187.945 36.4395C187.945 36.5449 187.916 36.6328 187.857 36.7031C187.799 36.7852 187.699 36.8262 187.559 36.8262C187.348 36.8262 187.113 36.7441 186.855 36.5801C186.609 36.4277 186.299 36.2344 185.924 36C185.561 35.7539 185.121 35.4961 184.605 35.2266C184.09 34.9453 183.463 34.6875 182.725 34.4531C182.174 34.2656 181.617 34.1191 181.055 34.0137C180.504 33.9082 179.859 33.8379 179.121 33.8027C178.711 33.7676 178.506 33.6504 178.506 33.4512C178.506 33.2285 178.641 33.1172 178.91 33.1172C179.074 33.1172 179.303 33.1172 179.596 33.1172C179.889 33.1172 180.188 33.1055 180.492 33.082C180.961 33.0469 181.348 32.9062 181.652 32.6602C181.957 32.4023 182.186 31.9336 182.338 31.2539C182.385 30.9844 182.432 30.6445 182.479 30.2344C182.525 29.8125 182.566 29.3672 182.602 28.8984C182.637 28.418 182.666 27.9316 182.689 27.4395C182.713 26.9473 182.725 26.4785 182.725 26.0332C182.725 25.6348 182.719 25.1777 182.707 24.6621C182.695 24.1348 182.654 23.5898 182.584 23.0273C182.525 22.4648 182.426 21.9141 182.285 21.375C182.156 20.8359 181.963 20.3555 181.705 19.9336C181.447 19.5117 181.119 19.1719 180.721 18.9141C180.322 18.6445 179.836 18.5098 179.262 18.5098C178.77 18.5098 178.318 18.6328 177.908 18.8789C177.51 19.125 177.152 19.4707 176.836 19.916C176.52 20.3496 176.25 20.8652 176.027 21.4629C175.805 22.0605 175.635 22.7168 175.518 23.4316C175.389 24.1582 175.301 24.9082 175.254 25.6816C175.219 26.4434 175.201 27.2051 175.201 27.9668C175.201 28.6113 175.225 29.2324 175.271 29.8301C175.318 30.416 175.383 30.9609 175.465 31.4648C175.547 31.957 175.646 32.3965 175.764 32.7832C175.881 33.1699 176.016 33.4746 176.168 33.6973C176.391 34.002 176.631 34.2305 176.889 34.3828C177.146 34.5352 177.363 34.6406 177.539 34.6992C177.773 34.7695 177.938 34.834 178.031 34.8926C178.137 34.9395 178.189 35.0098 178.189 35.1035C178.189 35.1738 178.131 35.2383 178.014 35.2969C177.908 35.3555 177.727 35.3848 177.469 35.3848C177.223 35.3848 176.953 35.3672 176.66 35.332C176.367 35.2852 176.062 35.2383 175.746 35.1914C175.43 35.1445 175.102 35.1035 174.762 35.0684C174.422 35.0215 174.088 34.998 173.76 34.998C173.432 34.998 173.098 35.0098 172.758 35.0332C172.418 35.0566 172.09 35.0801 171.773 35.1035C171.469 35.127 171.188 35.1504 170.93 35.1738C170.672 35.1973 170.467 35.209 170.314 35.209C169.857 35.209 169.629 35.0625 169.629 34.7695C169.629 34.6641 169.664 34.5762 169.734 34.5059C169.816 34.4238 169.957 34.3711 170.156 34.3477C170.32 34.3359 170.467 34.3242 170.596 34.3125C170.725 34.3008 170.854 34.2949 170.982 34.2949C171.123 34.2832 171.264 34.2715 171.404 34.2598C171.557 34.248 171.732 34.2305 171.932 34.207C172.307 34.1484 172.559 34.0137 172.688 33.8027C172.828 33.5801 172.898 33.2812 172.898 32.9062C172.898 32.2617 172.84 31.4766 172.723 30.5508C172.617 29.625 172.471 28.6055 172.283 27.4922C172.096 26.3789 171.867 25.2012 171.598 23.959C171.34 22.7051 171.064 21.4277 170.771 20.127C170.631 19.459 170.467 18.9609 170.279 18.6328C170.104 18.3047 169.846 18.1406 169.506 18.1406C169.33 18.1406 169.148 18.1758 168.961 18.2461C168.773 18.3047 168.586 18.375 168.398 18.457C168.223 18.5273 168.053 18.5977 167.889 18.668C167.725 18.7266 167.572 18.7559 167.432 18.7559C167.209 18.7559 167.098 18.6621 167.098 18.4746C167.098 18.3223 167.156 18.2168 167.273 18.1582C167.402 18.0879 167.537 18.0234 167.678 17.9648C168.006 17.8359 168.357 17.6719 168.732 17.4727C169.119 17.2734 169.535 17.0039 169.98 16.6641C170.414 16.3242 170.801 15.9609 171.141 15.5742C171.48 15.1875 171.773 14.8301 172.02 14.502C172.266 14.1738 172.465 13.9043 172.617 13.6934C172.77 13.4707 172.887 13.3594 172.969 13.3594Z" fill="#A2D2FF"/>
<path d="M194.027 13.3594C194.121 13.3594 194.215 13.5117 194.309 13.8164C194.402 14.1094 194.496 14.4961 194.59 14.9766C194.684 15.457 194.777 16.0137 194.871 16.6465C194.965 17.2676 195.059 17.9004 195.152 18.5449L195.785 22.9746C195.844 22.5879 195.943 22.1426 196.084 21.6387C196.236 21.1348 196.436 20.6133 196.682 20.0742C196.928 19.5352 197.227 19.0078 197.578 18.4922C197.93 17.9766 198.334 17.5137 198.791 17.1035C199.26 16.6934 199.781 16.3652 200.355 16.1191C200.941 15.8613 201.592 15.7324 202.307 15.7324C203.186 15.7324 203.947 15.9023 204.592 16.2422C205.236 16.5703 205.77 17.0332 206.191 17.6309C206.613 18.2168 206.924 18.9199 207.123 19.7402C207.322 20.5605 207.422 21.457 207.422 22.4297C207.422 23.3086 207.369 24.1934 207.264 25.084C207.17 25.9629 207.064 26.8301 206.947 27.6855C206.842 28.541 206.736 29.3672 206.631 30.1641C206.537 30.9609 206.49 31.7051 206.49 32.3965C206.49 32.8066 206.525 33.1641 206.596 33.4688C206.666 33.7734 206.771 34.0547 206.912 34.3125C207.076 34.5586 207.275 34.7754 207.51 34.9629C207.756 35.1387 207.984 35.3086 208.195 35.4727C208.418 35.625 208.605 35.7832 208.758 35.9473C208.922 36.0996 209.004 36.2637 209.004 36.4395C209.004 36.5449 208.975 36.6328 208.916 36.7031C208.857 36.7852 208.758 36.8262 208.617 36.8262C208.406 36.8262 208.172 36.7441 207.914 36.5801C207.668 36.4277 207.357 36.2344 206.982 36C206.619 35.7539 206.18 35.4961 205.664 35.2266C205.148 34.9453 204.521 34.6875 203.783 34.4531C203.232 34.2656 202.676 34.1191 202.113 34.0137C201.562 33.9082 200.918 33.8379 200.18 33.8027C199.77 33.7676 199.564 33.6504 199.564 33.4512C199.564 33.2285 199.699 33.1172 199.969 33.1172C200.133 33.1172 200.361 33.1172 200.654 33.1172C200.947 33.1172 201.246 33.1055 201.551 33.082C202.02 33.0469 202.406 32.9062 202.711 32.6602C203.016 32.4023 203.244 31.9336 203.396 31.2539C203.443 30.9844 203.49 30.6445 203.537 30.2344C203.584 29.8125 203.625 29.3672 203.66 28.8984C203.695 28.418 203.725 27.9316 203.748 27.4395C203.771 26.9473 203.783 26.4785 203.783 26.0332C203.783 25.6348 203.777 25.1777 203.766 24.6621C203.754 24.1348 203.713 23.5898 203.643 23.0273C203.584 22.4648 203.484 21.9141 203.344 21.375C203.215 20.8359 203.021 20.3555 202.764 19.9336C202.506 19.5117 202.178 19.1719 201.779 18.9141C201.381 18.6445 200.895 18.5098 200.32 18.5098C199.828 18.5098 199.377 18.6328 198.967 18.8789C198.568 19.125 198.211 19.4707 197.895 19.916C197.578 20.3496 197.309 20.8652 197.086 21.4629C196.863 22.0605 196.693 22.7168 196.576 23.4316C196.447 24.1582 196.359 24.9082 196.312 25.6816C196.277 26.4434 196.26 27.2051 196.26 27.9668C196.26 28.6113 196.283 29.2324 196.33 29.8301C196.377 30.416 196.441 30.9609 196.523 31.4648C196.605 31.957 196.705 32.3965 196.822 32.7832C196.939 33.1699 197.074 33.4746 197.227 33.6973C197.449 34.002 197.689 34.2305 197.947 34.3828C198.205 34.5352 198.422 34.6406 198.598 34.6992C198.832 34.7695 198.996 34.834 199.09 34.8926C199.195 34.9395 199.248 35.0098 199.248 35.1035C199.248 35.1738 199.189 35.2383 199.072 35.2969C198.967 35.3555 198.785 35.3848 198.527 35.3848C198.281 35.3848 198.012 35.3672 197.719 35.332C197.426 35.2852 197.121 35.2383 196.805 35.1914C196.488 35.1445 196.16 35.1035 195.82 35.0684C195.48 35.0215 195.146 34.998 194.818 34.998C194.49 34.998 194.156 35.0098 193.816 35.0332C193.477 35.0566 193.148 35.0801 192.832 35.1035C192.527 35.127 192.246 35.1504 191.988 35.1738C191.73 35.1973 191.525 35.209 191.373 35.209C190.916 35.209 190.688 35.0625 190.688 34.7695C190.688 34.6641 190.723 34.5762 190.793 34.5059C190.875 34.4238 191.016 34.3711 191.215 34.3477C191.379 34.3359 191.525 34.3242 191.654 34.3125C191.783 34.3008 191.912 34.2949 192.041 34.2949C192.182 34.2832 192.322 34.2715 192.463 34.2598C192.615 34.248 192.791 34.2305 192.99 34.207C193.365 34.1484 193.617 34.0137 193.746 33.8027C193.887 33.5801 193.957 33.2812 193.957 32.9062C193.957 32.2617 193.898 31.4766 193.781 30.5508C193.676 29.625 193.529 28.6055 193.342 27.4922C193.154 26.3789 192.926 25.2012 192.656 23.959C192.398 22.7051 192.123 21.4277 191.83 20.127C191.689 19.459 191.525 18.9609 191.338 18.6328C191.162 18.3047 190.904 18.1406 190.564 18.1406C190.389 18.1406 190.207 18.1758 190.02 18.2461C189.832 18.3047 189.645 18.375 189.457 18.457C189.281 18.5273 189.111 18.5977 188.947 18.668C188.783 18.7266 188.631 18.7559 188.49 18.7559C188.268 18.7559 188.156 18.6621 188.156 18.4746C188.156 18.3223 188.215 18.2168 188.332 18.1582C188.461 18.0879 188.596 18.0234 188.736 17.9648C189.064 17.8359 189.416 17.6719 189.791 17.4727C190.178 17.2734 190.594 17.0039 191.039 16.6641C191.473 16.3242 191.859 15.9609 192.199 15.5742C192.539 15.1875 192.832 14.8301 193.078 14.502C193.324 14.1738 193.523 13.9043 193.676 13.6934C193.828 13.4707 193.945 13.3594 194.027 13.3594ZM223.436 26.6836C223.6 26.9531 223.746 27.3164 223.875 27.7734C224.016 28.2305 224.086 28.6934 224.086 29.1621C224.086 30.0176 223.945 30.7852 223.664 31.4648C223.383 32.1328 222.979 32.7012 222.451 33.1699C221.924 33.627 221.285 33.9785 220.535 34.2246C219.797 34.4707 218.965 34.5938 218.039 34.5938C216.703 34.5938 215.508 34.3711 214.453 33.9258C213.41 33.4688 212.531 32.8359 211.816 32.0273C211.102 31.2188 210.557 30.2578 210.182 29.1445C209.807 28.0195 209.619 26.7891 209.619 25.4531C209.619 24.2461 209.748 23.1504 210.006 22.166C210.264 21.1816 210.615 20.3027 211.061 19.5293C211.506 18.7559 212.021 18.082 212.607 17.5078C213.193 16.9336 213.814 16.459 214.471 16.084C215.127 15.709 215.795 15.4336 216.475 15.2578C217.154 15.0703 217.811 14.9766 218.443 14.9766C219.064 14.9766 219.709 15.0586 220.377 15.2227C221.045 15.3867 221.654 15.668 222.205 16.0664C222.768 16.4648 223.225 16.9922 223.576 17.6484C223.939 18.293 224.121 19.1074 224.121 20.0918C224.121 20.9473 223.992 21.6973 223.734 22.3418C223.488 22.9863 223.16 23.543 222.75 24.0117C222.34 24.4805 221.871 24.8672 221.344 25.1719C220.828 25.4766 220.295 25.7227 219.744 25.9102C219.205 26.0859 218.672 26.209 218.145 26.2793C217.629 26.3496 217.172 26.3848 216.773 26.3848C216.199 26.3848 215.637 26.3438 215.086 26.2617C214.547 26.1797 214.125 26.0918 213.82 25.998C213.867 26.9121 214.008 27.7969 214.242 28.6523C214.488 29.4961 214.834 30.2402 215.279 30.8848C215.725 31.5293 216.275 32.0449 216.932 32.4316C217.6 32.8184 218.379 33.0117 219.27 33.0117C219.891 33.0117 220.424 32.9062 220.869 32.6953C221.326 32.4844 221.701 32.2031 221.994 31.8516C222.287 31.4883 222.504 31.0723 222.645 30.6035C222.785 30.1348 222.855 29.6426 222.855 29.127C222.855 28.8223 222.832 28.5059 222.785 28.1777C222.75 27.8496 222.68 27.5391 222.574 27.2461C222.504 27.0703 222.445 26.9062 222.398 26.7539C222.352 26.6016 222.328 26.4785 222.328 26.3848C222.328 26.1504 222.434 26.0332 222.645 26.0332C222.75 26.0332 222.873 26.0859 223.014 26.1914C223.166 26.2969 223.307 26.4609 223.436 26.6836ZM213.75 24.8379C214.055 24.9316 214.4 25.0137 214.787 25.084C215.174 25.1426 215.66 25.1719 216.246 25.1719C216.926 25.1719 217.553 25.043 218.127 24.7852C218.701 24.5273 219.193 24.1699 219.604 23.7129C220.014 23.2441 220.336 22.6816 220.57 22.0254C220.805 21.3691 220.922 20.6367 220.922 19.8281C220.922 19.1133 220.84 18.5156 220.676 18.0352C220.523 17.543 220.318 17.1504 220.061 16.8574C219.803 16.5645 219.504 16.3594 219.164 16.2422C218.836 16.1133 218.496 16.0488 218.145 16.0488C217.699 16.0488 217.219 16.1836 216.703 16.4531C216.188 16.7227 215.707 17.1914 215.262 17.8594C214.828 18.5273 214.465 19.4297 214.172 20.5664C213.891 21.6914 213.75 23.1152 213.75 24.8379Z" fill="#BCFF78"/>
</svg>
